<svg id="Layer_1" data-name="Layer 1" xmlns="http://www.w3.org/2000/svg" viewBox="0 0 1000 1000"><defs><style>.cls-1,.cls-2{fill:none;stroke-miterlimit:10;stroke-width:31.11px;}.cls-1{stroke:#f8db66;}.cls-2{stroke:#424b75;}</style></defs><polygon class="cls-1" points="853.24 120.7 744.83 280.12 802.22 280.12 802.22 496.07 901.06 496.07 901.06 280.12 958.45 280.12 853.24 120.7"/><polygon class="cls-1" points="850.05 936.21 958.45 776.79 901.06 776.79 901.06 560.85 802.22 560.85 802.22 776.79 744.83 776.79 850.05 936.21"/><path class="cls-1" d="M495,118h82.85a63.25,63.25,0,0,1,63.24,63.24v726a63.24,63.24,0,0,1-63.24,63.24H118.7a63.24,63.24,0,0,1-63.24-63.24v-726A63.24,63.24,0,0,1,118.7,118h71.46"/><path class="cls-1" d="M259.09,43.41H437.42a63.24,63.24,0,0,1,63.24,63.24v84.74a0,0,0,0,1,0,0H195.85a0,0,0,0,1,0,0V106.65A63.24,63.24,0,0,1,259.09,43.41Z"/><line class="cls-1" x1="268.58" y1="306.49" x2="573.39" y2="306.49"/><polyline class="cls-1" points="123.94 289.39 159.35 324.8 221.28 262.88"/><line class="cls-1" x1="268.58" y1="439.29" x2="573.39" y2="439.29"/><polyline class="cls-1" points="123.94 422.19 159.35 457.61 221.28 395.68"/><line class="cls-1" x1="268.58" y1="572.09" x2="573.39" y2="572.09"/><polyline class="cls-1" points="123.94 554.99 159.35 590.41 221.28 528.48"/><line class="cls-1" x1="268.58" y1="704.9" x2="573.39" y2="704.9"/><polyline class="cls-1" points="123.94 687.8 159.35 723.21 221.28 661.28"/><line class="cls-1" x1="268.58" y1="837.7" x2="573.39" y2="837.7"/><polyline class="cls-1" points="123.94 820.6 159.35 856.01 221.28 794.09"/><polygon class="cls-2" points="839.32 106.79 730.92 266.21 788.31 266.21 788.31 482.15 887.15 482.15 887.15 266.21 944.54 266.21 839.32 106.79"/><polygon class="cls-2" points="836.13 922.3 944.54 762.88 887.15 762.88 887.15 546.94 788.31 546.94 788.31 762.88 730.92 762.88 836.13 922.3"/><path class="cls-2" d="M481.06,104.12H563.9a63.24,63.24,0,0,1,63.24,63.24v726a63.24,63.24,0,0,1-63.24,63.24H104.79a63.24,63.24,0,0,1-63.24-63.24v-726a63.24,63.24,0,0,1,63.24-63.24h71.46"/><path class="cls-2" d="M245.18,29.5H423.51a63.24,63.24,0,0,1,63.24,63.24v84.74a0,0,0,0,1,0,0H181.94a0,0,0,0,1,0,0V92.74A63.24,63.24,0,0,1,245.18,29.5Z"/><line class="cls-2" x1="254.66" y1="292.58" x2="559.48" y2="292.58"/><polyline class="cls-2" points="110.02 275.48 145.44 310.89 207.36 248.97"/><line class="cls-2" x1="254.66" y1="425.38" x2="559.48" y2="425.38"/><polyline class="cls-2" points="110.02 408.28 145.44 443.69 207.36 381.77"/><line class="cls-2" x1="254.66" y1="558.18" x2="559.48" y2="558.18"/><polyline class="cls-2" points="110.02 541.08 145.44 576.5 207.36 514.57"/><line class="cls-2" x1="254.66" y1="690.98" x2="559.48" y2="690.98"/><polyline class="cls-2" points="110.02 673.88 145.44 709.3 207.36 647.37"/><line class="cls-2" x1="254.66" y1="823.78" x2="559.48" y2="823.78"/><polyline class="cls-2" points="110.02 806.69 145.44 842.1 207.36 780.17"/></svg>