<svg id="Layer_1" data-name="Layer 1" xmlns="http://www.w3.org/2000/svg" viewBox="0 0 552.18 330.64"><defs><style>.cls-1{fill:#24436c;}</style></defs><path class="cls-1" d="M161.76,132.35c2.33,4.87,6.51,15.79,14.44,17.67a26,26,0,0,0,3.75.84,117.31,117.31,0,0,0,6.94,18.57c-8.18-5.79-21.9-12-22.51-8.34-.69,4.12,5.63,7.4,9.2,10.87,2.5,2.43,6.32,7.11,12.35,9.49a9.51,9.51,0,0,0,7.7,0l.48.73a78.45,78.45,0,0,0,12.49,13.73,62.81,62.81,0,0,0-13.66-.88c-8.05.58-9.5,1.84-9.5,3.92s6.66,2.65,12,4.36c4.25,1.35,15.63,5,21.23.51a90.29,90.29,0,0,0,11.37,6.7c-6.12,1.54-15.39,4.32-17,7.37-2.37,4.61,7.36.53,16.64,3,6.9,1.86,10.64-3.21,12.1-5.94a37.89,37.89,0,0,0,10.65,1.29c-4.27,2.28-7.63,7.15-4.61,8.64,4.12,2,13.86-6.3,19.05-10.57s8.9-5,8.9-5-.62-.81-4-1-11.38-3.27-14.54-5.5-8-8.71-7,0a17.5,17.5,0,0,0,2.79,7.93,84.55,84.55,0,0,1-9.91-2.16,15.15,15.15,0,0,0-2.81-9c-4.5-6.05-5-11.86-7.06-12-1.8-.11-3.93,7.68.3,17.65a81,81,0,0,1-11.88-6.12c1-2.84,1.56-7.8-2.5-14-6.5-10-6.11-15.42-6.6-18s-3.68-3.59-4.55,3a47.57,47.57,0,0,0,2.83,20.81A74.26,74.26,0,0,1,198,178.46a10.33,10.33,0,0,0,2.52-5.35c1-5.33.11-9.24-.89-15.46-.61-3.77,1.4-8.63.76-12.06-.18-1-2.21-2.71-6.45,5a29.58,29.58,0,0,0-3.6,14.18,98.66,98.66,0,0,1-4.89-13.93,9.24,9.24,0,0,0,6.36-5.67c2.72-6.47,1.94-14.11,2.79-17.89s2.67-7.74.73-8.88-7.49,6-8.83,12a37,37,0,0,1-3.57,8.74c-.15-1-.31-2-.45-3a145.47,145.47,0,0,1-1.37-17.64c2.45-.52,10.29-5.92,12.15-13,1.91-7.28,3.3-12.56,4.53-14s.24-4.14-2.92-1.76c-2.67,2-9,9.89-13.37,16.87a106.54,106.54,0,0,1,3-18.08,6.47,6.47,0,0,0,4.08-.94c4.82-2.52,12.68-10.47,14.32-17.45s-.67-5.63-1.55-4.46-7.81,9.85-13.78,13.13a92.2,92.2,0,0,1,9.79-19.08c1.21.42,3.24.65,6.59,0,7-1.43,15.44-14.19,15.81-15.84s-1.54-2.62-5.95,1.07a46.86,46.86,0,0,1-9.3,5.46,112.6,112.6,0,0,1,26.6-22,.38.38,0,0,0-.34-.67,89,89,0,0,0-29.53,20.59,21.47,21.47,0,0,1,2.24-5.77c2.42-4,8.54-14.49,8.21-15.46s-1.13-2-11.11,8.43c-8,8.39-7.42,16.46-6,20.69a87.68,87.68,0,0,0-8.55,14c.17-3.44.43-7.29.86-10.52,1.06-8.08.11-12.83-2.18-11.67s-2.73,2.57-5.71,10.67c-3.22,8.77-2.87,15.6-1.81,19.09a31.74,31.74,0,0,0,3.35,6.47,121.8,121.8,0,0,0-4,18.39c-.16-.65-.32-1.34-.48-2.09-1.72-7.87-6.8-19.41-9.53-20.12s-2.8,2.69-2.26,4.47,1.53,10.2,2.79,18c1,5.91,3.41,12.47,8.39,14.82a118,118,0,0,0,1.62,20.51c-3-4.6-7.58-10.91-11.64-13.41-6.71-4.15-8.33-3.25-7.84-1S159.85,128.35,161.76,132.35Z"/><path class="cls-1" d="M321,28.41a112.6,112.6,0,0,1,26.61,22,46.86,46.86,0,0,1-9.3-5.46c-4.42-3.69-6.34-2.72-6-1.07s8.85,14.41,15.81,15.84c3.36.68,5.39.45,6.6,0a92.2,92.2,0,0,1,9.79,19.08c-6-3.28-13-12.08-13.79-13.13s-3.2-2.53-1.55,4.46,9.5,14.93,14.32,17.45a6.48,6.48,0,0,0,4.08.94,106.51,106.51,0,0,1,3,18.08c-4.4-7-10.71-14.85-13.38-16.87-3.16-2.38-4.15.34-2.92,1.76s2.62,6.71,4.54,14c1.86,7.07,9.7,12.47,12.14,13a143.48,143.48,0,0,1-1.37,17.64c-.14,1-.29,2-.45,3a36.53,36.53,0,0,1-3.56-8.74c-1.34-5.94-6.9-13.09-8.83-12s-.12,5.09.72,8.88.08,11.42,2.79,17.89a9.27,9.27,0,0,0,6.36,5.67,96.21,96.21,0,0,1-4.89,13.93,29.56,29.56,0,0,0-3.59-14.18c-4.24-7.7-6.27-6-6.46-5-.63,3.43,1.37,8.29.77,12.06-1,6.22-1.9,10.13-.9,15.46a10.41,10.41,0,0,0,2.53,5.35,74.71,74.71,0,0,1-10.84,12.43,47.71,47.71,0,0,0,2.83-20.81c-.87-6.59-4.07-5.62-4.56-3s-.09,8-6.59,18c-4.06,6.24-3.5,11.2-2.51,14a80.48,80.48,0,0,1-11.88,6.12c4.24-10,2.1-17.76.3-17.65-2,.13-2.55,5.94-7.05,12a15.17,15.17,0,0,0-2.82,9,83.68,83.68,0,0,1-9.91,2.16,17.5,17.5,0,0,0,2.8-7.93c.92-8.71-3.89-2.22-7.05,0s-11.14,5.3-14.53,5.5-4,1-4,1,3.71.74,8.91,5,14.92,12.61,19.05,10.57c3-1.49-.34-6.36-4.61-8.64a37.89,37.89,0,0,0,10.65-1.29c1.46,2.73,5.19,7.8,12.1,5.94,9.28-2.49,19,1.59,16.63-3-1.56-3.05-10.84-5.83-17-7.37a90.4,90.4,0,0,0,11.38-6.7c5.59,4.45,17,.84,21.23-.51,5.37-1.71,12-2.27,12-4.36s-1.46-3.34-9.5-3.92a63,63,0,0,0-13.67.88,79,79,0,0,0,12.5-13.73l.48-.73a9.48,9.48,0,0,0,7.69,0c6-2.38,9.86-7.06,12.36-9.49,3.57-3.47,9.88-6.75,9.2-10.87-.61-3.64-14.33,2.55-22.51,8.34a117.33,117.33,0,0,0,6.93-18.57A26,26,0,0,0,376,150c7.93-1.88,12.12-12.8,14.44-17.67,1.91-4,3.63-6.27,4.11-8.54s-1.12-3.16-7.84,1c-4.06,2.5-8.64,8.81-11.63,13.41a120,120,0,0,0,1.62-20.51c5-2.35,7.41-8.91,8.38-14.82,1.27-7.76,2.26-16.17,2.8-18s.47-5.18-2.26-4.47-7.81,12.25-9.53,20.12c-.17.75-.33,1.44-.49,2.09a120.58,120.58,0,0,0-4-18.39,30.77,30.77,0,0,0,3.35-6.47c1.07-3.49,1.41-10.32-1.81-19.09-3-8.1-3.42-9.51-5.71-10.67s-3.24,3.59-2.17,11.67c.43,3.23.69,7.08.85,10.52a86.93,86.93,0,0,0-8.54-14c1.43-4.23,2-12.3-6-20.69-10-10.47-10.79-9.4-11.12-8.43s5.8,11.44,8.22,15.46a21.43,21.43,0,0,1,2.23,5.77,89,89,0,0,0-29.52-20.59A.38.38,0,0,0,321,28.41Z"/><path class="cls-1" d="M252.47,169.16c-.19,0-.59,0-.67-.23a4,4,0,0,1,0-.67V167.1H252c.24,0,.54,0,.68.23a1.65,1.65,0,0,1,.23.75h.7V165.3h-.7a1.62,1.62,0,0,1-.15.79.67.67,0,0,1-.57.19h-.44v-.88a1,1,0,0,1,.09-.54c.11-.15.62-.16.79-.16a2.67,2.67,0,0,1,2.27,1.32l.61-.29-.89-1.86h-5.18v.74l.21,0c.47.08.51.26.51.6v3.13c0,.55,0,.75-.57.85l-.15,0V170h5.33l1-2.12-.63-.3A3,3,0,0,1,252.47,169.16Z"/><path class="cls-1" d="M262.08,166.63a5.15,5.15,0,0,0-1.39-.51l-.6-.16-.33-.07c-.32-.08-1-.18-1-.62s.58-.65,1-.65a2,2,0,0,1,1.1.37,3.13,3.13,0,0,1,.75.83l.08.11.65-.24-.59-1.82h-.54l-.11.29a2.68,2.68,0,0,0-1.45-.44,2.11,2.11,0,0,0-2.29,2A1.58,1.58,0,0,0,258,167a4.15,4.15,0,0,0,1.38.5l1,.26c.36.08,1,.17,1,.67s-.66.79-1.15.79a2.71,2.71,0,0,1-2.33-1.66l-.68.22.75,2.26h.54l.12-.41a2.78,2.78,0,0,0,1.61.49,2.31,2.31,0,0,0,2.53-2.2A1.52,1.52,0,0,0,262.08,166.63Z"/><path class="cls-1" d="M264.67,163.87l-.72,1.86.66.26a3.42,3.42,0,0,1,.63-.86,1.48,1.48,0,0,1,.92-.44c.14,0,.17,0,.17.13v3.69a.61.61,0,0,1-.73.74h-.11V170h3.27v-.73h-.11a.61.61,0,0,1-.73-.74v-3.69c0-.11,0-.13.17-.13a1.48,1.48,0,0,1,.92.44,3.19,3.19,0,0,1,.63.86l.66-.26-.72-1.86Z"/><path class="cls-1" d="M271.73,168.44a.8.8,0,0,0-.8.81.82.82,0,0,0,1.63,0A.79.79,0,0,0,271.73,168.44Z"/><path class="cls-1" d="M282.08,168.73h-1.41a12.1,12.1,0,0,0,2-1.28,2.48,2.48,0,0,0,1.14-1.87c0-1.35-1.35-1.86-2.49-1.86a2.94,2.94,0,0,0-1.67.45,1.63,1.63,0,0,0-.79,1.35.81.81,0,0,0,.25.66.94.94,0,0,0,.54.2.72.72,0,0,0,.74-.68.67.67,0,0,0-.12-.39.46.46,0,0,1-.11-.27c0-.35.61-.53.89-.53a.88.88,0,0,1,1,.91c0,1.55-1.93,2.75-3.07,3.49l-.1.07.15,1h4.57l.55-1.95-.73-.19C283.06,168.66,282.74,168.73,282.08,168.73Z"/><path class="cls-1" d="M288.56,163.72c-1.92,0-2.79,1.52-2.79,3.27s.88,3.14,2.74,3.14,2.72-1.5,2.72-3.21S290.4,163.72,288.56,163.72Zm-.07,5.57c-1,0-1.06-1.67-1.06-2.36s.08-2.37,1.06-2.37,1.07,1.64,1.07,2.32S289.49,169.29,288.49,169.29Z"/><path class="cls-1" d="M296.26,169.24c-.45,0-.73-.1-.74-.59v-4.78h-.44l-.08,0a8.3,8.3,0,0,1-2.1.28h-.08v.73l.35,0c.18,0,.62,0,.73.19a.71.71,0,0,1,.05.33v3.2a.58.58,0,0,1-.09.39,2.09,2.09,0,0,1-1,.21h-.07V170h3.87v-.73h-.43Z"/><path class="cls-1" d="M301.64,169.24c-.45,0-.73-.1-.73-.59v-4.78h-.44l-.09,0a8.24,8.24,0,0,1-2.1.28h-.07v.73l.34,0c.18,0,.62,0,.73.19a.71.71,0,0,1,.05.33v3.2a.58.58,0,0,1-.09.39,2.06,2.06,0,0,1-1,.21h-.06V170h3.86v-.73h-.43Z"/><path class="cls-1" d="M257.52,73.92c-6.61,4.57-19.19,5-19.19,5,3.5,9.9,21.9-3.61,21.9-3.61-3.08,5.1-14,8.27-14,8.27,5.9,7.73,16.25-6.92,16.25-6.92-2,6-8.91,9.83-8.91,9.83,7.1,4.77,10.86-8.79,10.86-8.79,5.26,2.16,7.82-.95,7-1-5.83-.63-5.09-2.73-6.06-5.31-1.39-3.69-8.06-2.61-20.15,0-7.7,1.66-12,0-12,0C231.51,83,257.52,73.92,257.52,73.92Z"/><path class="cls-1" d="M287.73,77.71s3.75,13.56,10.86,8.79c0,0-6.94-3.82-8.91-9.83,0,0,10.35,14.65,16.24,6.92,0,0-10.89-3.17-14-8.27,0,0,18.4,13.51,21.89,3.61,0,0-12.57-.44-19.18-5,0,0,26,9.12,24.37-2.56,0,0-4.36,1.66-12.06,0-12.09-2.61-18.76-3.69-20.15,0-1,2.58-.23,4.68-6.05,5.31C279.91,76.76,282.46,79.87,287.73,77.71Z"/><path class="cls-1" d="M274.81,120.45a9.79,9.79,0,0,1-1.65-.76,2.38,2.38,0,0,0-.58,1.15,3.37,3.37,0,0,0,2,3.55,5.14,5.14,0,0,1-.64-2.21A2,2,0,0,1,274.81,120.45Z"/><path class="cls-1" d="M268.78,84.44c2.35.08,4.24-.18,4.45-1a1.52,1.52,0,0,0-.81-1.8c-.71-.36-1.15-1.2-2.58-1.2A8.83,8.83,0,0,0,265,81.94a6.08,6.08,0,0,0-2.47,4.93,6.83,6.83,0,0,0,3.31,6.45,12.88,12.88,0,0,0,2.11,1.2c.43.19.86.36,1.3.51a16.49,16.49,0,0,0,1.66.48c.72.18,1.44.34,2.17.48l.1,0c.57.11,1.15.2,1.73.3L275,102c-.57-.1-1.12-.2-1.64-.31-2.13-.43-3.75-1-3.93-2.07a1.4,1.4,0,0,1,.55-1.44,9.58,9.58,0,0,1,3.11-1.08L273,97c-.7-.14-1.39-.29-2.08-.46-.53-.12-1.06-.27-1.58-.43s-.86-.29-1.28-.46a4.28,4.28,0,0,0-1.2,1.11,4.46,4.46,0,0,0,1.52,6.1,9.38,9.38,0,0,0,1.14.55c.36.14.75.28,1.18.41s.89.28,1.39.41l1.62.39.13,0,1.23.27.08,5.53-.51-.19a7.64,7.64,0,0,1-2.92-1.56c-.57-.73-.51-1.94,1-2.62a9.6,9.6,0,0,1,1.14-.37l-.39-.08-1.43-.35c-.41-.11-.81-.21-1.17-.32s-.78-.24-1.13-.36a6,6,0,0,0-.41.47c-1.54,2.13-.25,4.69.88,5.75a7.45,7.45,0,0,0,1.53,1.07c.33.18.67.34,1,.49s.77.32,1.16.47l.64.23.63.21.06,4.13a4.32,4.32,0,0,1-.43-.22c-1.6-.9-1.84-2.07-.33-2.94l.13-.07-1.21-.43-.45-.17c-.32-.13-.65-.27-1-.42a3.37,3.37,0,0,0-.61,2,3.88,3.88,0,0,0,1.65,3.16,6.29,6.29,0,0,0,.92.58,10.23,10.23,0,0,0,1.33.56l.14,8.78c0,.59.33.91.62.91h0c.29,0,.61-.32.62-.91l.14-8.19a3.68,3.68,0,0,1,.59.35,2,2,0,0,1,.92,1.73,5.23,5.23,0,0,1-.65,2.21,3.36,3.36,0,0,0,2-3.55,2.36,2.36,0,0,0-.57-1.15,4.77,4.77,0,0,0-.8-.74,8.09,8.09,0,0,0-1.41-.81l.07-4.22a7.31,7.31,0,0,1,.67.3l.14.07c1.5.87,1.27,2-.34,2.94a8.45,8.45,0,0,1,1.8,1.14,3.89,3.89,0,0,0,1.64-3.16,3.3,3.3,0,0,0-.61-2,3.81,3.81,0,0,0-.77-.79,6.58,6.58,0,0,0-1.07-.67c-.25-.12-.51-.23-.8-.35h0l-.6-.23.1-5.74,1.29.32a9.31,9.31,0,0,1,1.13.37c1.53.68,1.59,1.89,1,2.62a7.56,7.56,0,0,1-2.92,1.56l.37.14a9.93,9.93,0,0,1,1,.44,6.44,6.44,0,0,1,.63.36,5.43,5.43,0,0,1,.91.69,7.19,7.19,0,0,0,1.53-1.07c1.13-1.06,2.42-3.62.88-5.75a4.45,4.45,0,0,0-.41-.47,5.57,5.57,0,0,0-.94-.78,7.87,7.87,0,0,0-1.33-.68,12.86,12.86,0,0,0-1.37-.47c-.52-.15-1.1-.27-1.71-.39l.1-5.61c.65.11,1.29.22,1.89.35a9.58,9.58,0,0,1,3.11,1.08,1.38,1.38,0,0,1,.55,1.44c-.17,1.08-1.79,1.64-3.93,2.07a14.13,14.13,0,0,1,1.84.62,7.94,7.94,0,0,1,1,.47,6.22,6.22,0,0,1,1.05.71,8.71,8.71,0,0,0,1.14-.55,4.46,4.46,0,0,0,1.52-6.1,4.24,4.24,0,0,0-1.19-1.11A8.53,8.53,0,0,0,283,95c-.49-.21-1-.4-1.62-.59s-1.55-.46-2.46-.7l-.26-.06c-.42-.11-.87-.21-1.34-.31l.31-17.6a3.66,3.66,0,1,0-3,0l.27,17.11-1.28-.26a19,19,0,0,1-4.42-1.38c-3-1.53-3.15-3.91-3.08-4.69A2.6,2.6,0,0,1,268.78,84.44Z"/><path class="cls-1" d="M279,83.48c.21.78,2.1,1,4.46,1a2.6,2.6,0,0,1,2.68,2.11c.07.78-.08,3.16-3.07,4.69a19.29,19.29,0,0,1-4.43,1.38l.53.12,1.58.44a22.79,22.79,0,0,1,2.25.75,10.78,10.78,0,0,1,1.28.59,12.8,12.8,0,0,0,2.1-1.2,6.83,6.83,0,0,0,3.31-6.45,6.05,6.05,0,0,0-2.47-4.93,8.79,8.79,0,0,0-4.82-1.46c-1.44,0-1.88.84-2.58,1.2A1.53,1.53,0,0,0,279,83.48Z"/><path class="cls-1" d="M271.54,156.41c.66.1,4.55,0,4.55,0s3.89.1,4.54,0c0,0,.41-.1.52-.85,0,0,38.73-2.76,41.33-3.6L316,134.55c-4.14,2.65-9,2.52-14.32.17s-8.61-4.43-15.29-4.09A14.45,14.45,0,0,0,276.09,136a14.45,14.45,0,0,0-10.33-5.39c-6.68-.34-9.93,1.74-15.29,4.09s-10.18,2.48-14.33-.17L229.7,152c2.6.84,41.32,3.6,41.32,3.6C271.14,156.31,271.54,156.41,271.54,156.41Zm-28.28-5.77a13.24,13.24,0,0,1-10.61-1.14l4.41-11.79s2.18,1.57,6.63,1.6,12.26-3,15.3-4.25,9.68-2.22,14.56,1.71l2.54,2h0l2.54-2c4.88-3.93,11.52-2.93,14.56-1.71s10.85,4.28,15.29,4.25,6.64-1.6,6.64-1.6l4.4,11.79a13.23,13.23,0,0,1-10.6,1.14c-5.95-1.9-13.67-4.86-19.39-4.86s-11.84,3.64-13.44,7.06c-1.61-3.42-7.71-7.06-13.44-7.06S249.21,148.74,243.26,150.64Z"/><path class="cls-1" d="M208.22,148.81h0v0A32.09,32.09,0,0,0,222.09,168l.51.34.44.27.44.27c9.08,5.5,27.24,12.19,38,19.39,8.85,5.93,13,14.85,14.38,18.22.1.24.18.45.25.63l.24-.63c1.34-3.37,5.54-12.29,14.38-18.22,10.74-7.2,28.91-13.89,38-19.39l.45-.27.44-.27.5-.34A32.06,32.06,0,0,0,344,148.82v0h0c3.92-14.36.5-33.13-5.06-53.83-9.36-34.8-23.7-54-23.7-54l-1.63,1.78c-.15.17-15.78,17-37.47,17.11-21.7-.13-37.32-16.94-37.48-17.11L237,40.93S222.64,60.18,213.29,95C207.72,115.68,204.31,134.45,208.22,148.81ZM238,46.43a65.19,65.19,0,0,0,9.5,7.38c6.36,4.08,16.42,8.92,28.38,9.06h.49c12-.14,22-5,28.38-9.06a64.84,64.84,0,0,0,9.51-7.38c2,4.62,7,16.47,11.89,31.19,5.83,17.44,12.78,42.59,12.78,63.36,0,21.65-13.76,27.13-29.69,33.46-11.71,4.66-24.88,9.92-33.11,22.7-8.24-12.78-21.4-18-33.11-22.7-15.93-6.33-29.69-11.81-29.69-33.46,0-20.77,6.94-45.92,12.77-63.36C231,62.9,236,51.05,238,46.43Z"/><path class="cls-1" d="M276.09,52.87l6.5-20,20.34-6.5-20.34-6.48L276.09,0s-6.49,19.93-6.49,19.93l-20.34,6.48,20.34,6.5Z"/><path class="cls-1" d="M28.68,269.58c-.1-.26-.2-.52-.31-.79l-9.1-23.2H14.69l-7.4,19-.1.25a54.05,54.05,0,0,1-2.72,6.39A4.56,4.56,0,0,1,.79,274l-.79.14v2H12.47v-2l-.33,0c-2.28-.24-3.52-.7-3.52-2.47a12.89,12.89,0,0,1,1-3.5l1.13-3H21.47L23.34,270a7.38,7.38,0,0,1,.63,2.27c0,1.2-1.18,1.58-3.08,1.81l-.33,0v2h13v-2l-.35,0C30.37,273.92,29.63,272,28.68,269.58Zm-17-7.24L16,250.78l4.44,11.56Z"/><path class="cls-1" d="M54.07,267.38,46,245.59H34.86v2l1.1.06c2.87.16,3,1.63,3,4v18.16a6.74,6.74,0,0,1-.45,3c-.49,1-1.53,1.15-2.81,1.24h-.86v2.06H46.68v-2L45.53,274c-1.29,0-2.39-.17-2.9-1.3a12,12,0,0,1-.45-3.79V250.14l9.6,26h2.39l10.35-25.36v19.08a7,7,0,0,1-.44,3c-.47,1-1.51,1.1-2.59,1.23h-.77v2.06H73.59v-2l-1-.06c-2.73-.2-2.93-1.6-2.93-3.87V251.87a6.89,6.89,0,0,1,.44-3c.52-1,1.58-1.12,2.68-1.24h.82v-2.06H63Z"/><path class="cls-1" d="M106.5,266.24l-2-.88-.18.24c-4.23,5.68-8.25,7.9-14.35,7.9-1.54,0-3.39-.13-4.17-1.17a5.1,5.1,0,0,1-.58-2.83v-8.33h2.47c1.95,0,3.41.12,4.42,1.67a7.42,7.42,0,0,1,1.07,3.63l0,.34h2.21V253h-2.2l0,.33c-.52,4.3-1.33,5.05-5.4,5.05H85.21V252c0-1.31.07-2.37,1-3.07s3.21-.75,4.05-.75c5.44,0,9,1.8,12.66,6.42l.17.22,2-.82-3.24-8.41H76.15v2l1,.06c2.74.2,2.94,1.6,2.94,3.87v18.33a7.29,7.29,0,0,1-.4,2.94c-.48,1-1.42,1.05-2.51,1.17l-1,.1v2h26.13Z"/><path class="cls-1" d="M120.93,274.07h-1.27c-2.85-.2-3.06-1.68-3.06-4.09V262h5.56l9.75,14.09h7.88v-2l-.31-.06a6.56,6.56,0,0,1-4.71-3.13l-6.63-9.37c3.85-.59,7.76-3.23,7.76-7.95,0-5.18-3.85-8-10.84-8H107.28v2l1.18.06c2.72.15,3,1.36,3,3.87v18.33a7.37,7.37,0,0,1-.4,2.93c-.55,1-1.67,1.12-2.89,1.21l-.91.07v2h13.65Zm-4.33-23.21c0-1.05,0-1.62.91-2.12s3.6-.74,5-.74c5.43,0,8.07,1.82,8.07,5.58a5.6,5.6,0,0,1-2.33,4.72c-1.55,1.07-3.3,1.16-5.43,1.16H116.6Z"/><path class="cls-1" d="M153.65,274.09l-1-.06c-2.54-.24-2.72-1.61-2.72-3.83V252c0-2.52.14-4.08,2.82-4.31h.9v-2.06H141.09v2.06H142c2.72.23,2.85,1.79,2.85,4.31V270.2c0,2.22-.18,3.59-2.71,3.83l-1,.06v2h12.56Z"/><path class="cls-1" d="M185.24,268.66l-2.54-1.42-.18.32A12.47,12.47,0,0,1,172,273.94a10,10,0,0,1-8.1-4c-2.07-2.81-2.38-6.74-2.38-8.84a17.45,17.45,0,0,1,2.17-9.24,8.44,8.44,0,0,1,7.43-4.12,9.19,9.19,0,0,1,7,2.9,28.52,28.52,0,0,1,3.59,5.74l.43.86h2.09L182,246h-1.94l-.85,1.78a13.17,13.17,0,0,0-8.58-2.92c-8.46,0-15.08,7.07-15.08,16.08,0,9.25,6.64,15.95,15.78,15.95A15.24,15.24,0,0,0,185.05,269Z"/><path class="cls-1" d="M196.92,274.11l-.34,0c-2.27-.24-3.51-.7-3.51-2.47a13.23,13.23,0,0,1,1-3.5l1.14-3h10.72l1.88,4.93a7.38,7.38,0,0,1,.63,2.27c0,1.2-1.18,1.58-3.08,1.81l-.33,0v2h13v-2l-.36,0c-2.87-.15-3.62-2.06-4.56-4.49-.1-.26-.21-.52-.31-.79l-9.11-23.2h-4.58l-7.4,19-.09.23a52.77,52.77,0,0,1-2.73,6.41,4.55,4.55,0,0,1-3.68,2.75l-.78.14v2h12.47Zm3.48-23.33,4.44,11.56h-8.76Z"/><path class="cls-1" d="M242.18,276.13h4.35v-24.3a7.46,7.46,0,0,1,.39-2.94c.5-1,1.5-1.1,2.77-1.2l.82-.07v-2H239v2l1.23.06c2.76.15,3.06,1.37,3.06,3.92v16.86l-13.77-22.88H219.31v2l1,.06c2.7.2,2.89,1.6,2.89,3.87v18.33a7.46,7.46,0,0,1-.39,2.94c-.52,1-1.58,1.16-2.69,1.24h-.81v2.06h11.38v-2l-1.23-.06c-2.76-.16-3.06-1.4-3.06-4V250.43Z"/><path class="cls-1" d="M296.14,266.31V252.26a8.87,8.87,0,0,1,.44-3.37c.52-1,1.58-1.16,2.68-1.24H300v-2.06H288.61v2l1.23.06c2.79.15,3.1,1.4,3.1,4v12.82c0,2.34-.1,5-1.25,6.66-1.68,2.5-5.42,2.77-6.95,2.77-3.54,0-6-1-7.21-2.85-.92-1.4-1-3.5-1-5.18,0-.45,0-.9,0-1.34s0-.79,0-1.15V251.83a7.26,7.26,0,0,1,.4-2.94c.55-1.11,1.76-1.15,3-1.2l1-.07v-2H267.39v2l1.05.06c2.83.2,3,1.65,3,4v14.7c0,3.89.6,6.26,3.85,8.41,2.76,1.83,6,2.07,8.87,2.07,3.92,0,6.8-.75,8.81-2.31C295.91,272.19,296.14,269.64,296.14,266.31Z"/><path class="cls-1" d="M325.34,276.13h4.35v-24.3a7.45,7.45,0,0,1,.4-2.94c.49-1,1.49-1.1,2.76-1.2l.82-.07v-2H322.2v2l1.23.06c2.76.15,3.06,1.37,3.06,3.92v16.86l-13.76-22.88H302.47v2l1,.06c2.69.2,2.89,1.6,2.89,3.87v18.33a7.45,7.45,0,0,1-.4,2.94c-.52,1-1.58,1.16-2.69,1.24h-.81v2.06h11.38v-2l-1.23-.06c-2.75-.16-3.05-1.4-3.05-4V250.43Z"/><path class="cls-1" d="M347.72,247.65h.9v-2.06H336.05v2.06h.87c2.72.23,2.85,1.79,2.85,4.31V270.2c0,2.22-.18,3.59-2.71,3.83l-1,.06v2h12.57v-2l-1-.06c-2.54-.24-2.72-1.61-2.72-3.83V252C344.9,249.44,345,247.88,347.72,247.65Z"/><path class="cls-1" d="M383.94,247.62v-2H371.56v2l.34,0c2.06.19,3.64.5,3.64,2.38a6,6,0,0,1-.59,2.18l-7,17.87-7.18-18.67a5.59,5.59,0,0,1-.59-2.17c0-1.25,1.24-1.43,2.86-1.55l.52,0,.34,0v-2h-13.7v2l.35,0c3.09.19,3.73,1.78,4.8,4.4l9.76,23.85.09.23h3.35l9.41-23,.16-.38c.59-1.41,1.57-3.76,2.78-4.42a6.9,6.9,0,0,1,2.74-.7Z"/><path class="cls-1" d="M413.64,265.6c-4.23,5.68-8.25,7.9-14.36,7.9-1.53,0-3.39-.13-4.16-1.17a5.1,5.1,0,0,1-.58-2.83v-8.33H397c1.95,0,3.4.12,4.41,1.67a7.33,7.33,0,0,1,1.08,3.63l0,.34h2.2V253h-2.19l0,.33c-.52,4.3-1.33,5.05-5.4,5.05h-2.56V252c0-1.31.07-2.37,1-3.07s3.21-.75,4.06-.75c5.44,0,9,1.8,12.66,6.42l.17.22,2-.82-3.24-8.41h-25.7v2l1,.06c2.74.2,2.93,1.6,2.93,3.87v18.33a7.28,7.28,0,0,1-.39,2.94c-.48,1-1.42,1.05-2.51,1.17l-1,.1v2h26.13l4.22-9.89-2-.88Z"/><path class="cls-1" d="M430.26,274.07H429c-2.85-.2-3.06-1.68-3.06-4.09V262h5.55L441.13,276l.11.16h7.88v-2l-.32-.06a6.57,6.57,0,0,1-4.7-3.13l-6.63-9.37c3.84-.59,7.75-3.23,7.75-7.95,0-5.18-3.84-8-10.83-8H416.6v2l1.19.06c2.72.15,3,1.36,3,3.87v18.33a7.39,7.39,0,0,1-.39,2.93c-.55,1-1.68,1.12-2.89,1.21l-.92.07v2h13.66Zm-4.33-23.21c0-1.05,0-1.62.91-2.12s3.6-.74,5-.74c5.43,0,8.07,1.82,8.07,5.58a5.6,5.6,0,0,1-2.33,4.72c-1.55,1.07-3.3,1.16-5.43,1.16h-6.19Z"/><path class="cls-1" d="M466.35,257.76l-4.66-1.1c-2.59-.63-6.12-1.5-6.12-4.62s3.69-4.26,6-4.26c4.18,0,7.75,2.3,10.62,6.83l.17.25,2-.76-2.87-8.51H469.4L469,247a14.37,14.37,0,0,0-7.85-2.11,12,12,0,0,0-7.27,2,8.11,8.11,0,0,0-3.34,6.47,7.19,7.19,0,0,0,3.45,5.95,23.27,23.27,0,0,0,6.37,2.42l4.85,1.18.46.11c2.93.75,5.69,1.45,5.69,4.82,0,4-3.84,6.1-7.63,6.1-5.91,0-10.28-4.79-12.22-8.89l-.14-.3-2.27.74,3,10.64h2.16l.74-2a15.61,15.61,0,0,0,9.19,2.73c5.93,0,12.23-3.58,12.23-10.21S470.59,258.77,466.35,257.76Z"/><path class="cls-1" d="M477.84,247.65h.87c2.72.23,2.85,1.79,2.85,4.31V270.2c0,2.22-.18,3.59-2.71,3.83l-1,.06v2h12.57v-2l-1-.06c-2.54-.24-2.72-1.61-2.72-3.83V252c0-2.52.14-4.08,2.82-4.31h.9v-2.06H477.84Z"/><path class="cls-1" d="M493.35,245.59l-2.64,8.3,2.09.76.15-.29c2.11-4.07,5.44-6.32,9.38-6.32,1.47,0,1.47.43,1.47,1.86v19.56a8.92,8.92,0,0,1-.45,3.38c-.49,1-1.65,1.1-2.77,1.17l-1.33.08v2h14.31V274h-1.42c-1.21-.09-2.36-.16-2.85-1.29a9.68,9.68,0,0,1-.37-3.19v-20c0-1.21.06-1.59,1.33-1.59,3.75,0,7.33,2.44,9.34,6.36l.14.29,2.24-.75-2.65-8.31Z"/><path class="cls-1" d="M540.53,245.59v2l.29.07.5.11c1.27.26,2.32.55,2.32,1.49a4.16,4.16,0,0,1-.86,2.12l-5.5,8.6-5.76-9.12a4,4,0,0,1-.74-1.73c0-1,1.31-1.22,2.66-1.41l.71-.11v-2H521v2l.3.06c2.71.54,3.53,1.89,4.89,4.13l7.23,11.67v6.41a6.75,6.75,0,0,1-.44,3c-.55,1.07-1.72,1.15-3,1.24h-1.29v2.06h14.36v-2.06h-1.3c-3.1,0-3.25-1.73-3.25-4.79v-5.71l6.84-10.75.4-.58c1.74-2.55,2.78-4.09,6.09-4.59l.32-.05v-2Z"/><path class="cls-1" d="M105.63,294.69l-5.15-1.33c-1.66-.42-2.26-1.21-2.26-2.39,0-1.63,1.27-2.62,3.13-2.62a7.44,7.44,0,0,1,6.56,4.48l1.58-.48-1.78-5.6H106.3l-.45,1a9.45,9.45,0,0,0-4.89-1.33c-4.2,0-6.34,2.73-6.34,5.55,0,1.69.48,3.91,4.76,5l4.45,1.18c2.33.62,3.18,1.27,3.18,2.82,0,2.14-2,3.35-4.08,3.35-2.4,0-5.41-1.47-7.63-5.92l-1.5.6,2.14,6.92h1.38l.43-1.13c.73.85,3.21,1.5,5.18,1.5,5,0,7.68-3,7.68-6.56C110.61,296.88,108.92,295.53,105.63,294.69Z"/><path class="cls-1" d="M124.91,304.32c-3.49,0-5.77-3.38-5.77-8,0-4.93,2.06-8,5.41-8,2.22,0,4.84,1.49,6.5,5.29l1.61-.48-1.81-6.36h-1.4l-.51,1v.06a8.67,8.67,0,0,0-4.79-1.47c-5.46,0-9.12,4.56-9.12,9.94s3.66,10,9.8,10a8.75,8.75,0,0,0,8.22-5.3l-1.63-.78C129.7,303.11,127.5,304.32,124.91,304.32Z"/><path class="cls-1" d="M148.72,288.38c1.67.09,2.43.65,2.43,2.11v4h-8.06v-4c0-1.46.76-2,2.43-2.11v-1.63H136.9v1.63c1.66.09,2.42.65,2.42,2.11v11.69c0,1.46-.76,2-2.42,2.11v1.63h8.62v-1.63c-1.67-.09-2.43-.65-2.43-2.11v-5.92h8.06v5.92c0,1.46-.76,2-2.43,2.11v1.63h8.62v-1.63c-1.66-.09-2.42-.65-2.42-2.11V290.49c0-1.46.76-2,2.42-2.11v-1.63h-8.62Z"/><path class="cls-1" d="M171,286.38c-6.14,0-9.8,4.56-9.8,10s3.66,9.94,9.8,9.94,9.79-4.56,9.79-9.94S177.14,286.38,171,286.38Zm0,17.94c-3.47,0-5.69-3.38-5.69-8,0-5,2.22-8,5.69-8s5.68,3,5.68,8C176.69,300.94,174.47,304.32,171,304.32Z"/><path class="cls-1" d="M195.23,286.38c-6.13,0-9.79,4.56-9.79,10s3.66,9.94,9.79,9.94,9.8-4.56,9.8-9.94S201.37,286.38,195.23,286.38Zm0,17.94c-3.46,0-5.68-3.38-5.68-8,0-5,2.22-8,5.68-8s5.69,3,5.69,8C200.92,300.94,198.7,304.32,195.23,304.32Z"/><path class="cls-1" d="M216.46,304c-1.69,0-1.91-.56-1.91-1.77V290.69c0-1.8.59-2.25,2.81-2.31v-1.63h-9v1.63c1.66.09,2.42.65,2.42,2.11v11.69c0,1.46-.76,2-2.42,2.11v1.63h14.92l3-6.42-1.61-.62C222.23,303,219.67,304,216.46,304Z"/><path class="cls-1" d="M251.6,306.29c6.13,0,9.79-4.56,9.79-9.94s-3.66-10-9.79-10-9.8,4.56-9.8,10S245.46,306.29,251.6,306.29Zm0-17.94c3.46,0,5.68,3,5.68,8,0,4.59-2.22,8-5.68,8s-5.69-3.38-5.69-8C245.91,291.34,248.13,288.35,251.6,288.35Z"/><path class="cls-1" d="M273.71,288.72a7.58,7.58,0,0,1,6.47,3.18l.74,1,1.4-.67-2.47-5.52H265.26v1.63c1.66.09,2.42.65,2.42,2.11v11.69c0,1.46-.76,2-2.42,2.11v1.63h8.62v-1.63c-1.66-.09-2.42-.65-2.42-2.11v-5.75h1.12c2.28,0,2.82.79,3.1,3.52h1.46V291h-1.46c-.17,2.53-.59,3.46-2.56,3.46h-1.66v-3.77C271.46,289.08,272,288.72,273.71,288.72Z"/><path class="cls-1" d="M301.27,302.18V288.89h.06l5.26,17h1.8l5.63-17h.06v12.67c0,2.19-.28,2.42-2.76,2.73v1.63h8.95v-1.63c-1.66-.09-2.42-.65-2.42-2.11V290.49c0-1.46.76-2,2.42-2.11v-1.63h-7.46l-4.33,13h-.06l-4-13h-7.74v1.63c1.66.09,2.42.65,2.42,2.11v11.69c0,1.46-.76,2-2.42,2.11v1.63h7v-1.63C302,304.2,301.27,303.64,301.27,302.18Z"/><path class="cls-1" d="M333.9,304.12c-2.11,0-2.59-.31-2.59-1.72v-6h1.12c2.29,0,2.82.79,3.1,3.52H337V291h-1.47c-.17,2.53-.59,3.46-2.56,3.46h-1.66v-4c0-1.35.53-1.69,2.28-1.69a8.35,8.35,0,0,1,7.77,4.31l1.44-.74-2.59-5.54h-15.1v1.63c1.67.09,2.43.65,2.43,2.11v11.69c0,1.46-.76,2-2.43,2.11v1.63H340.8l2.9-6.45-1.5-.7C339.56,303.13,337,304.12,333.9,304.12Z"/><path class="cls-1" d="M357.68,286.75h-10.3v1.63c1.66.09,2.42.65,2.42,2.11v11.69c0,1.46-.76,2-2.42,2.11v1.63h10.44c8.31,0,9.58-6.59,9.58-9.6C367.4,293.67,366.1,286.75,357.68,286.75Zm-1.18,17.37c-2.79,0-2.93-.59-2.93-1.63V290.58c0-1.69.31-2,2.82-2,5,0,6.89,3.63,6.89,7.43C363.28,302.35,360,304.12,356.5,304.12Z"/><path class="cls-1" d="M371.11,288.38c1.66.09,2.42.65,2.42,2.11v11.69c0,1.46-.76,2-2.42,2.11v1.63h8.62v-1.63c-1.67-.09-2.43-.65-2.43-2.11V290.49c0-1.46.76-2,2.43-2.11v-1.63h-8.62Z"/><path class="cls-1" d="M392.73,304.32c-3.49,0-5.77-3.38-5.77-8,0-4.93,2.06-8,5.41-8,2.22,0,4.84,1.49,6.5,5.29l1.61-.48-1.81-6.36h-1.4l-.51,1v.06a8.67,8.67,0,0,0-4.79-1.47c-5.46,0-9.12,4.56-9.12,9.94s3.66,10,9.8,10a8.75,8.75,0,0,0,8.22-5.3l-1.63-.78C397.52,303.11,395.32,304.32,392.73,304.32Z"/><path class="cls-1" d="M404.57,288.38c1.66.09,2.42.65,2.42,2.11v11.69c0,1.46-.76,2-2.42,2.11v1.63h8.61v-1.63c-1.66-.09-2.42-.65-2.42-2.11V290.49c0-1.46.76-2,2.42-2.11v-1.63h-8.61Z"/><path class="cls-1" d="M429.12,288.38c1.66.09,2.42.65,2.42,2.11v9.27h-.05l-7.3-13h-6.95v1.63c1.66.09,2.42.65,2.42,2.11v11.69c0,1.46-.76,2-2.42,2.11v1.63h7v-1.63c-1.66-.09-2.42-.65-2.42-2.11V289.7h.06l9.34,16.22h2.48V290.49c0-1.46.76-2,2.42-2.11v-1.63h-7Z"/><path class="cls-1" d="M448.57,304.12c-2.11,0-2.59-.31-2.59-1.72v-6h1.13c2.28,0,2.82.79,3.1,3.52h1.46V291h-1.46c-.17,2.53-.59,3.46-2.57,3.46H446v-4c0-1.35.54-1.69,2.28-1.69A8.35,8.35,0,0,1,456,293l1.44-.74-2.59-5.54H439.79v1.63c1.66.09,2.42.65,2.42,2.11v11.69c0,1.46-.76,2-2.42,2.11v1.63h15.68l2.9-6.45-1.49-.7C454.23,303.13,451.67,304.12,448.57,304.12Z"/><path class="cls-1" d="M244.84,327.07l-4.94-12.22h-2.6l-4.94,11.72c-.77,1.82-1.24,2.18-2.32,2.47v1.3h5.59V329c-1.25-.11-1.72-.54-1.72-.94a3.48,3.48,0,0,1,.33-1.28l.83-2.14h5.66l1.08,2.74a3.14,3.14,0,0,1,.27.92c0,.43-.47.66-2,.7v1.3H247V329C245.78,328.88,245.42,328.5,244.84,327.07Zm-9.18-3.82,2.26-5.8,2.27,5.8Z"/><path class="cls-1" d="M263.91,327.54l-3.28-4.43c2.11-.42,3.72-1.82,3.72-4.06,0-2-1.12-4-5.5-4H250.5v1.3c1.32.07,1.93.52,1.93,1.69v9.32c0,1.16-.61,1.61-1.93,1.68v1.3h6.87V329c-1.32-.07-1.93-.52-1.93-1.68v-4h1.73l4.92,7h4.08V329A2.86,2.86,0,0,1,263.91,327.54Zm-7-5.59h-1.48v-4c0-1.23.29-1.48,2.22-1.48,2.52,0,3.42,1.12,3.42,2.67C261.08,321.14,260,322,256.92,322Z"/><path class="cls-1" d="M278.48,316.35c1.32.07,1.93.52,1.93,1.69v6.73c0,2.23-.13,4.16-3.68,4.16-2.05,0-3.46-.9-3.46-3.41V318c0-1.17.61-1.62,1.93-1.69v-1.3h-6.87v1.3c1.32.07,1.93.52,1.93,1.69v8c0,2.88,2.07,4.59,5.84,4.59,5.16,0,5.88-2.81,5.88-4.9V318c0-1.17.61-1.62,1.93-1.69v-1.3h-5.43Z"/><path class="cls-1" d="M299.32,322.13l-.43-.09V322l.54-.18a3.33,3.33,0,0,0,2.27-3.14c0-2.94-2.65-3.62-5.68-3.62H287.6v1.3c1.32.07,1.93.52,1.93,1.69v9.32c0,1.16-.61,1.61-1.93,1.68v1.3h8.62c3,0,6.24-.81,6.24-4.58C302.46,323.45,301.14,322.51,299.32,322.13Zm-6.78-4.07c0-1.19.18-1.57,2.47-1.57,2.83,0,3.68,1,3.68,2.51,0,2.05-2,2.41-3.93,2.41h-2.22ZM295,328.91c-1.93,0-2.44-.21-2.44-1.53v-4.54H296c2,0,3.21.77,3.21,2.79C299.18,327.47,298,328.91,295,328.91Z"/><path class="cls-1" d="M320,327.07,315,314.85h-2.6l-4.94,11.72c-.76,1.82-1.24,2.18-2.31,2.47v1.3h5.59V329c-1.26-.11-1.73-.54-1.73-.94a3.37,3.37,0,0,1,.34-1.28l.83-2.14h5.66l1.07,2.74a3.14,3.14,0,0,1,.27.92c0,.43-.47.66-2,.7v1.3h6.91V329C320.9,328.88,320.54,328.5,320,327.07Zm-9.18-3.82,2.27-5.8,2.27,5.8Z"/></svg>