<svg id="Layer_1" data-name="Layer 1" xmlns="http://www.w3.org/2000/svg" viewBox="0 0 1000 1000"><defs><style>.cls-1,.cls-2{fill:none;stroke-miterlimit:10;stroke-width:31.11px;}.cls-1{stroke:#f8db66;}.cls-2{stroke:#424b75;}</style></defs><circle class="cls-1" cx="250.1" cy="251.98" r="142.87"/><path class="cls-1" d="M35.8,618.8c0-118.36,95.94-214.3,214.3-214.3h0c118.36,0,214.3,95.94,214.3,214.3"/><circle class="cls-1" cx="762.28" cy="252.37" r="142.87"/><path class="cls-1" d="M548,619.19c0-118.36,95.94-214.3,214.3-214.3h0c118.36,0,214.31,95.94,214.31,214.3"/><polygon class="cls-1" points="464.35 751.42 278.79 594.27 278.79 666.79 35.83 666.79 35.83 830.76 278.79 830.76 278.79 903.27 464.35 751.42"/><polygon class="cls-1" points="548.03 746.13 733.59 903.27 733.59 830.76 976.56 830.76 976.56 666.79 733.59 666.79 733.59 594.27 548.03 746.13"/><circle class="cls-2" cx="237.72" cy="239.6" r="142.87"/><path class="cls-2" d="M23.41,606.42c0-118.36,96-214.31,214.31-214.31h0c118.36,0,214.3,95.95,214.3,214.31"/><circle class="cls-2" cx="749.9" cy="239.99" r="142.87"/><path class="cls-2" d="M535.6,606.81c0-118.36,95.94-214.3,214.3-214.3h0c118.36,0,214.3,95.94,214.3,214.3"/><polygon class="cls-2" points="451.97 739.03 266.41 581.89 266.41 654.41 23.44 654.41 23.44 818.38 266.41 818.38 266.41 890.89 451.97 739.03"/><polygon class="cls-2" points="535.65 733.75 721.21 890.89 721.21 818.38 964.17 818.38 964.17 654.41 721.21 654.41 721.21 581.89 535.65 733.75"/></svg>