<svg xmlns="http://www.w3.org/2000/svg" id="Layer_1" data-name="Layer 1" viewBox="0 0 1000 1000"><defs><style>.cls-1{fill:#f8db66;}.cls-2{fill:#424b75;}</style></defs><path class="cls-1" d="M507.53,212.35a10.12,10.12,0,0,1,10.18,10.18v2.74a82.24,82.24,0,0,1,28.38,9.4,13.19,13.19,0,0,1-6.26,24.87,14.21,14.21,0,0,1-6.85-1.77,75.5,75.5,0,0,0-16.25-6.65v29.76c29.76,8,42.48,20.16,42.48,42.09s-16.84,36-41.5,38.77v10.37a10.19,10.19,0,0,1-20.37,0V361.54a97.91,97.91,0,0,1-38.57-13.71,13.45,13.45,0,0,1,6.86-25.06,14.2,14.2,0,0,1,7.63,2.55c8.23,5.29,16.06,9,25.06,11V305.15c-28.19-7.63-42.09-18.4-42.09-41.7,0-21.53,16.45-36,41.11-38.57v-2.35A10.12,10.12,0,0,1,507.53,212.35Zm-9.21,63.44V249.35c-9.39,1.38-13.51,6.07-13.51,12.34C484.81,267.76,487.56,271.87,498.32,275.79Zm18.41,34.26v27.21c9.2-1.37,13.9-5.68,13.9-12.72C530.63,318.08,527.3,313.77,516.73,310.05Z"></path><path class="cls-1" d="M325.67,725.16H203a61.36,61.36,0,0,0,122.71,0Z"></path><path class="cls-1" d="M279.21,710.22h61.3a61.35,61.35,0,0,0-61.3-61.31Z"></path><path class="cls-1" d="M264.26,663.76a61.34,61.34,0,0,0-61.3,61.3h61.3Z"></path><path class="cls-1" d="M819.11,703.8l-14-3a4.08,4.08,0,0,1-1.71-.83,3.93,3.93,0,0,1-1.13-1.51l-5.51-14.36a3.29,3.29,0,0,1-.5-1.75,3.33,3.33,0,0,1,.5-1.76l8.18-12a3.84,3.84,0,0,0,0-5l-14.2-12.36a3.85,3.85,0,0,0-4.67,0l-10.52,7.52a3.7,3.7,0,0,1-1.84.49,3.66,3.66,0,0,1-1.83-.49L758,653.87a3.73,3.73,0,0,1-1.67-3.17l-2.5-14.36a3.84,3.84,0,0,0-4.51-2.34H730.94a3.83,3.83,0,0,0-3.67,3l-4.34,13.69a3.42,3.42,0,0,1-.69,1.51,3.34,3.34,0,0,1-1.32,1l-12.52,6.34a3.52,3.52,0,0,1-3.84,0l-10.69-8.85a3.85,3.85,0,0,0-4.34,0l-13.86,14.2a3.79,3.79,0,0,0-.86,2.42,3.83,3.83,0,0,0,.86,2.42l7,10.85a4.35,4.35,0,0,1,0,3.51l-4.84,13.53a4.24,4.24,0,0,1-1.19,2.08,4.18,4.18,0,0,1-2.15,1.09l-14.53,4a3.81,3.81,0,0,0-2,1.36,3.85,3.85,0,0,0-.8,2.31v17.87a3.84,3.84,0,0,0,.82,2.46,3.79,3.79,0,0,0,2.19,1.38l14.86,3a3.48,3.48,0,0,1,2.67,2.17L683,747.22a3.65,3.65,0,0,1,0,3.51l-8,13.86a3.68,3.68,0,0,0,0,4.68l12.86,12.52a4.32,4.32,0,0,0,5,0l10.85-7.85a4,4,0,0,1,3.84,0l14.2,6.35a3.8,3.8,0,0,1,1.43,1.15,3.84,3.84,0,0,1,.74,1.69l2.5,14.36a4,4,0,0,0,3.84,3.17h19a4,4,0,0,0,3.84-3.17l2.17-15a3.79,3.79,0,0,1,.7-1.78,3.89,3.89,0,0,1,1.47-1.23L771,773.27a4.41,4.41,0,0,1,3.84,0l11.86,8a3.67,3.67,0,0,0,4.84,0l13.36-14a3.83,3.83,0,0,0,0-4.84L797.4,750.9a4.07,4.07,0,0,1,0-3.68l5.35-13a3.08,3.08,0,0,1,1-1.51,3,3,0,0,1,1.68-.66l13.69-3a3.68,3.68,0,0,0,3-3.67v-16.7a3.68,3.68,0,0,0,.18-1.61,3.63,3.63,0,0,0-.53-1.53,3.68,3.68,0,0,0-1.14-1.15A3.54,3.54,0,0,0,819.11,703.8Zm-79.48,50.94a37.75,37.75,0,1,1,26.51-10.88A37.71,37.71,0,0,1,739.63,754.74Z"></path><path class="cls-1" d="M505.2,548A250,250,0,0,1,328.4,121.19,250,250,0,0,1,682,474.79,248.43,248.43,0,0,1,505.2,548Zm0-467.88c-120.13,0-217.86,97.72-217.86,217.85S385.07,515.84,505.2,515.84,723.05,418.12,723.05,298,625.32,80.14,505.2,80.14Z"></path><path class="cls-1" d="M271.75,960.92a250,250,0,1,1,176.8-73.24A248.37,248.37,0,0,1,271.75,960.92Zm0-467.89C151.62,493,53.89,590.76,53.89,710.88s97.73,217.86,217.86,217.86S489.6,831,489.6,710.88,391.87,493,271.75,493Z"></path><path class="cls-1" d="M739.63,963.42a250,250,0,1,1,176.8-73.23A248.4,248.4,0,0,1,739.63,963.42Zm0-467.89c-120.13,0-217.86,97.73-217.86,217.86S619.5,931.24,739.63,931.24s217.85-97.73,217.85-217.85S859.75,495.53,739.63,495.53Z"></path><path class="cls-1" d="M505.52,437.86c-77.44,0-140.45-63-140.45-140.46S428.08,157,505.52,157,646,220,646,297.4,583,437.86,505.52,437.86Zm0-248.74A108.28,108.28,0,1,0,613.8,297.4,108.4,108.4,0,0,0,505.52,189.12Z"></path><path class="cls-1" d="M271.5,858.34c-77.44,0-140.45-63-140.45-140.45s63-140.46,140.45-140.46S412,640.44,412,717.89,349,858.34,271.5,858.34Zm0-248.73A108.28,108.28,0,1,0,379.78,717.89,108.4,108.4,0,0,0,271.5,609.61Z"></path><path class="cls-1" d="M739.55,858.34c-77.45,0-140.46-63-140.46-140.45s63-140.46,140.46-140.46S880,640.44,880,717.89,817,858.34,739.55,858.34Zm0-248.73A108.28,108.28,0,1,0,847.82,717.89,108.4,108.4,0,0,0,739.55,609.61Z"></path><path class="cls-2" d="M493.82,536.65A250,250,0,0,1,317,109.81a250,250,0,0,1,353.6,353.6A248.38,248.38,0,0,1,493.82,536.65Zm0-467.89C373.69,68.76,276,166.49,276,286.61s97.73,217.86,217.86,217.86,217.85-97.73,217.85-217.86S613.94,68.76,493.82,68.76Z"></path><path class="cls-2" d="M260.37,949.54a250,250,0,1,1,176.8-73.23A248.43,248.43,0,0,1,260.37,949.54Zm0-467.89c-120.12,0-217.85,97.73-217.85,217.86s97.73,217.85,217.85,217.85,217.86-97.73,217.86-217.85S380.5,481.65,260.37,481.65Z"></path><path class="cls-2" d="M728.25,952a250,250,0,1,1,176.8-73.23A248.43,248.43,0,0,1,728.25,952Zm0-467.88C608.13,484.16,510.4,581.88,510.4,702s97.73,217.85,217.85,217.85S946.11,822.14,946.11,702,848.38,484.16,728.25,484.16Z"></path><path class="cls-2" d="M494.15,426.48c-77.45,0-140.46-63-140.46-140.46s63-140.45,140.46-140.45S634.6,208.58,634.6,286,571.6,426.48,494.15,426.48Zm0-248.73A108.28,108.28,0,1,0,602.43,286,108.4,108.4,0,0,0,494.15,177.75Z"></path><path class="cls-2" d="M260.13,847c-77.45,0-140.46-63-140.46-140.46s63-140.45,140.46-140.45,140.45,63,140.45,140.45S337.57,847,260.13,847Zm0-248.74A108.28,108.28,0,1,0,368.4,706.51,108.4,108.4,0,0,0,260.13,598.23Z"></path><path class="cls-2" d="M728.17,847c-77.45,0-140.46-63-140.46-140.46s63-140.45,140.46-140.45,140.45,63,140.45,140.45S805.62,847,728.17,847Zm0-248.74A108.28,108.28,0,1,0,836.45,706.51,108.4,108.4,0,0,0,728.17,598.23Z"></path><path class="cls-2" d="M496.15,201a10.11,10.11,0,0,1,10.18,10.18v2.74a82.16,82.16,0,0,1,28.39,9.4,13.19,13.19,0,0,1-6.27,24.86,14.31,14.31,0,0,1-6.85-1.76,74.64,74.64,0,0,0-16.25-6.66V269.5c29.76,8,42.48,20.17,42.48,42.09s-16.83,36-41.5,38.77v10.37a10.18,10.18,0,0,1-20.36,0V350.16a98,98,0,0,1-38.57-13.7,13.45,13.45,0,0,1,6.85-25.06,14.28,14.28,0,0,1,7.64,2.54c8.22,5.29,16.05,9,25.06,11V293.78c-28.2-7.64-42.1-18.41-42.1-41.7,0-21.54,16.45-36,41.12-38.57v-2.35A10.11,10.11,0,0,1,496.15,201ZM487,264.41V238c-9.4,1.37-13.51,6.07-13.51,12.33C473.44,256.38,476.18,260.49,487,264.41Zm18.4,34.26v27.22c9.2-1.38,13.9-5.68,13.9-12.73C519.25,306.7,515.92,302.39,505.35,298.67Z"></path><path class="cls-2" d="M314.29,713.79H191.58a61.36,61.36,0,0,0,122.71,0Z"></path><path class="cls-2" d="M267.83,698.84h61.31a61.35,61.35,0,0,0-61.31-61.3Z"></path><path class="cls-2" d="M252.89,652.38a61.36,61.36,0,0,0-61.31,61.31h61.31Z"></path><path class="cls-2" d="M807.74,692.43l-14-3a4,4,0,0,1-2.84-2.34l-5.51-14.36a3.31,3.31,0,0,1,0-3.5l8.18-12a3.81,3.81,0,0,0,.93-2.5,3.86,3.86,0,0,0-.93-2.51l-14.19-12.36a3.86,3.86,0,0,0-4.68,0l-10.52,7.52a3.68,3.68,0,0,1-3.67,0l-13.86-4.84a3.73,3.73,0,0,1-1.25-1.37,3.68,3.68,0,0,1-.42-1.81L742.44,625a3.84,3.84,0,0,0-4.51-2.34H719.56a3.85,3.85,0,0,0-3.67,3l-4.34,13.69a3.35,3.35,0,0,1-.68,1.51,3.41,3.41,0,0,1-1.32,1L697,648.17a3.47,3.47,0,0,1-3.84,0l-10.69-8.85a3.85,3.85,0,0,0-4.34,0l-13.86,14.2a3.83,3.83,0,0,0,0,4.84l7,10.86a4.32,4.32,0,0,1,0,3.5l-4.84,13.53a4.15,4.15,0,0,1-3.34,3.17l-14.53,4a3.87,3.87,0,0,0-2.84,3.67V715a3.85,3.85,0,0,0,3,3.84l14.86,3a3.48,3.48,0,0,1,2.67,2.17l5.35,11.86a3.7,3.7,0,0,1,0,3.5l-8,13.86a3.68,3.68,0,0,0,0,4.68l12.86,12.52a4.32,4.32,0,0,0,5,0l10.86-7.84a3.87,3.87,0,0,1,1.92-.5,3.93,3.93,0,0,1,1.92.5l14.19,6.34a3.85,3.85,0,0,1,1.44,1.15,3.93,3.93,0,0,1,.73,1.69l2.51,14.36a4,4,0,0,0,3.84,3.17h19a4,4,0,0,0,2.48-.91,4.07,4.07,0,0,0,1.37-2.26l2.17-15a3.82,3.82,0,0,1,.69-1.78,3.73,3.73,0,0,1,1.48-1.22l13.52-6.18a4.3,4.3,0,0,1,1.92-.45,4.24,4.24,0,0,1,1.92.45l11.86,8a3.67,3.67,0,0,0,4.84,0l13.36-14a3.85,3.85,0,0,0,0-4.85L786,739.52a4.07,4.07,0,0,1-.45-1.84,4,4,0,0,1,.45-1.83l5.34-13a3,3,0,0,1,1-1.51,3,3,0,0,1,1.67-.66l13.7-3a3.66,3.66,0,0,0,3-3.67v-16.7a3.67,3.67,0,0,0-.35-3.14,3.64,3.64,0,0,0-2.65-1.7Zm-79.49,50.93a37.75,37.75,0,1,1,26.51-10.88A37.74,37.74,0,0,1,728.25,743.36Z"></path></svg>