<svg id="Layer_1" data-name="Layer 1" xmlns="http://www.w3.org/2000/svg" viewBox="0 0 1000 1000"><defs><style>.cls-1,.cls-3{fill:none;stroke-miterlimit:10;stroke-width:31.11px;}.cls-1{stroke:#f8db66;}.cls-2{fill:#f8db66;}.cls-3{stroke:#424b75;}.cls-4{fill:#424b75;}</style></defs><circle class="cls-1" cx="627.36" cy="379.51" r="230.48"/><path class="cls-2" d="M745.43,387.8H502a121.73,121.73,0,0,0,243.46,0Z"/><path class="cls-2" d="M653.25,358.16H774.88A121.72,121.72,0,0,0,653.25,236.53Z"/><path class="cls-2" d="M623.6,266A121.73,121.73,0,0,0,502,387.61H623.6Z"/><path class="cls-2" d="M570.74,688.54a313.84,313.84,0,0,1-72.31-22.47,17.75,17.75,0,0,0-14.56,32.38,349.59,349.59,0,0,0,80.51,25,18.31,18.31,0,0,0,3.2.29,17.75,17.75,0,0,0,3.16-35.21Z"/><path class="cls-2" d="M325,533.18a17.76,17.76,0,0,0,16-25.34,308.17,308.17,0,0,1-23.83-71.77A17.75,17.75,0,0,0,282.34,443,343.55,343.55,0,0,0,308.91,523,17.76,17.76,0,0,0,325,533.18Z"/><path class="cls-2" d="M334.6,223.88a17.74,17.74,0,0,0,24.45-5.67,335.15,335.15,0,0,1,47.3-59.49,17.75,17.75,0,0,0-25.11-25.09,371.06,371.06,0,0,0-52.31,65.8A17.74,17.74,0,0,0,334.6,223.88Z"/><path class="cls-2" d="M913.8,250.31a17.75,17.75,0,1,0,32.36-14.59,347.92,347.92,0,0,0-43.72-72.09,17.75,17.75,0,0,0-27.9,22A312.51,312.51,0,0,1,913.8,250.31Z"/><path class="cls-2" d="M456.42,114.06a17.67,17.67,0,0,0,9.39-2.7A319.43,319.43,0,0,1,534.34,79a17.75,17.75,0,1,0-11.17-33.69A354.72,354.72,0,0,0,447,81.26a17.75,17.75,0,0,0,9.42,32.8Z"/><path class="cls-2" d="M293.4,377.42c.39,0,.78,0,1.17,0a17.75,17.75,0,0,0,17.7-16.59,298.29,298.29,0,0,1,14.51-74.08,17.75,17.75,0,0,0-33.7-11.14,334.07,334.07,0,0,0-16.23,82.9A17.74,17.74,0,0,0,293.4,377.42Z"/><path class="cls-2" d="M687,69.59a17.75,17.75,0,0,0,3.41-35.17,326.6,326.6,0,0,0-62.77-6.12c-7.18,0-14.46.24-21.64.72a17.75,17.75,0,0,0,2.36,35.42c6.39-.43,12.88-.64,19.28-.64a290.78,290.78,0,0,1,55.92,5.45A17.67,17.67,0,0,0,687,69.59Z"/><path class="cls-2" d="M849.67,601.45l-.18.19a315.13,315.13,0,0,1-59.59,46.77,17.75,17.75,0,1,0,18.39,30.37,351,351,0,0,0,66.25-52l.32-.32a17.75,17.75,0,1,0-25.19-25Z"/><path class="cls-2" d="M971.25,316.2a17.75,17.75,0,0,0-34.92,6.4,316.45,316.45,0,0,1,5.17,56.91c0,6.21-.19,12.5-.55,18.7A17.75,17.75,0,0,0,957.61,417l1.07,0a17.75,17.75,0,0,0,17.7-16.7c.41-6.89.62-13.89.62-20.8A352.63,352.63,0,0,0,971.25,316.2Z"/><path class="cls-2" d="M949.62,461a17.74,17.74,0,0,0-22.2,11.71,312.71,312.71,0,0,1-31,69.06,17.75,17.75,0,1,0,30.38,18.36,347.56,347.56,0,0,0,34.52-76.92A17.76,17.76,0,0,0,949.62,461Z"/><path class="cls-2" d="M720.87,679.48a315.4,315.4,0,0,1-74.51,13.6,17.75,17.75,0,0,0,1,35.46l1.08,0a351.14,351.14,0,0,0,82.91-15.13,17.75,17.75,0,1,0-10.53-33.9Z"/><path class="cls-2" d="M831.19,136.56A17.75,17.75,0,0,0,842,104.72,395.23,395.23,0,0,0,770.54,60.9,17.75,17.75,0,0,0,755.41,93a359.28,359.28,0,0,1,65,39.89A17.64,17.64,0,0,0,831.19,136.56Z"/><path class="cls-1" d="M163.27,560.59H266.59a0,0,0,0,1,0,0v412.9a51.66,51.66,0,0,1-51.66,51.66h0a51.66,51.66,0,0,1-51.66-51.66V560.59A0,0,0,0,1,163.27,560.59Z" transform="translate(623.6 80.25) rotate(45)"/><line class="cls-1" x1="465.05" y1="542.78" x2="378.88" y2="628.94"/><circle class="cls-3" cx="614.81" cy="366.95" r="230.48"/><path class="cls-4" d="M732.88,375.25H489.42a121.73,121.73,0,0,0,243.46,0Z"/><path class="cls-4" d="M640.7,345.61H762.33A121.72,121.72,0,0,0,640.7,224Z"/><path class="cls-4" d="M611,254.14A121.73,121.73,0,0,0,489.37,375.77H611Z"/><path class="cls-4" d="M558.19,676a313.84,313.84,0,0,1-72.31-22.47,17.75,17.75,0,0,0-14.56,32.38,349.59,349.59,0,0,0,80.51,25,18.31,18.31,0,0,0,3.2.29A17.75,17.75,0,0,0,558.19,676Z"/><path class="cls-4" d="M312.42,520.63a17.76,17.76,0,0,0,16-25.34,308.09,308.09,0,0,1-23.83-71.78,17.75,17.75,0,0,0-34.83,6.89,343.55,343.55,0,0,0,26.57,80.06A17.76,17.76,0,0,0,312.42,520.63Z"/><path class="cls-4" d="M322.05,211.33a17.74,17.74,0,0,0,24.45-5.67,335.15,335.15,0,0,1,47.3-59.49,17.75,17.75,0,0,0-25.11-25.09,371.06,371.06,0,0,0-52.31,65.8A17.74,17.74,0,0,0,322.05,211.33Z"/><path class="cls-4" d="M901.25,237.76a17.75,17.75,0,1,0,32.36-14.59,347.92,347.92,0,0,0-43.72-72.09A17.75,17.75,0,0,0,862,173,312.51,312.51,0,0,1,901.25,237.76Z"/><path class="cls-4" d="M443.87,101.51a17.67,17.67,0,0,0,9.39-2.7,319.43,319.43,0,0,1,68.53-32.32A17.75,17.75,0,1,0,510.62,32.8a354.72,354.72,0,0,0-76.17,35.91,17.75,17.75,0,0,0,9.42,32.8Z"/><path class="cls-4" d="M280.85,364.87c.39,0,.78,0,1.17,0a17.75,17.75,0,0,0,17.7-16.59,298.29,298.29,0,0,1,14.51-74.08,17.75,17.75,0,0,0-33.7-11.14A334.09,334.09,0,0,0,264.29,346,17.75,17.75,0,0,0,280.85,364.87Z"/><path class="cls-4" d="M674.49,57a17.75,17.75,0,0,0,3.41-35.17,326.6,326.6,0,0,0-62.77-6.12c-7.18,0-14.47.24-21.64.72a17.75,17.75,0,0,0,2.36,35.42c6.39-.43,12.88-.64,19.28-.64a290.78,290.78,0,0,1,55.92,5.45A17.67,17.67,0,0,0,674.49,57Z"/><path class="cls-4" d="M837.12,588.9l-.18.19a315.13,315.13,0,0,1-59.59,46.77,17.75,17.75,0,1,0,18.39,30.37,351,351,0,0,0,66.25-52l.32-.32a17.75,17.75,0,1,0-25.19-25Z"/><path class="cls-4" d="M958.7,303.65a17.75,17.75,0,0,0-34.92,6.4A316.45,316.45,0,0,1,929,367c0,6.21-.19,12.5-.55,18.7a17.75,17.75,0,0,0,16.66,18.77l1.07,0a17.75,17.75,0,0,0,17.7-16.7c.41-6.89.62-13.89.62-20.8A352.63,352.63,0,0,0,958.7,303.65Z"/><path class="cls-4" d="M937.07,448.48a17.74,17.74,0,0,0-22.2,11.71,312.71,312.71,0,0,1-31,69.06,17.75,17.75,0,1,0,30.38,18.36,347.56,347.56,0,0,0,34.52-76.92A17.76,17.76,0,0,0,937.07,448.48Z"/><path class="cls-4" d="M708.32,666.93a315.4,315.4,0,0,1-74.51,13.6A17.75,17.75,0,0,0,634.86,716l1.08,0a350.64,350.64,0,0,0,82.91-15.14,17.74,17.74,0,1,0-10.53-33.89Z"/><path class="cls-4" d="M818.64,124a17.75,17.75,0,0,0,10.8-31.84A395.23,395.23,0,0,0,758,48.35a17.75,17.75,0,0,0-15.13,32.11,359.28,359.28,0,0,1,65,39.89A17.64,17.64,0,0,0,818.64,124Z"/><path class="cls-3" d="M150.72,548H254a0,0,0,0,1,0,0v412.9a51.66,51.66,0,0,1-51.66,51.66h0a51.66,51.66,0,0,1-51.66-51.66V548A0,0,0,0,1,150.72,548Z" transform="translate(611.05 85.45) rotate(45)"/><line class="cls-3" x1="452.5" y1="530.23" x2="366.33" y2="616.39"/></svg>