<?xml version="1.0" encoding="UTF-8"?><svg id="Layer_2" xmlns="http://www.w3.org/2000/svg" xmlns:xlink="http://www.w3.org/1999/xlink" viewBox="0 0 725.28 237.24"><defs><style>.cls-1{font-family:Poppins-Bold, Poppins;font-size:126.26px;font-weight:700;}.cls-2,.cls-3{fill:none;}.cls-3{clip-path:url(#clippath);}.cls-4{fill:#0093ff;}.cls-5{fill:#231f20;}</style><clipPath id="clippath"><rect class="cls-2" width="725.28" height="237.24"/></clipPath></defs><g id="Layer_1-2"><g class="cls-3"><rect class="cls-5" x="111.86" y="52.97" width="16.87" height="135.68" rx="8.27" ry="8.27" transform="translate(120.66 -49.68) rotate(45)"/><path class="cls-4" d="m230.25,69.53v95.41c0,29.27-23.73,53-53.03,53h-95.38c-28.61,0-51.95-22.69-53-51.06l70.51-70.54,15.08,15.08-44.08,44.11c-2.07,2.07-3.11,4.76-3.11,7.45s1.05,5.39,3.11,7.45c4.1,4.13,10.77,4.13,14.9,0l44.11-44.08,16.73,16.73c3.53,3.53,9.22,3.53,12.75,0l2.15-2.15c3.53-3.53,3.53-9.22,0-12.75l-16.73-16.73,18.47-18.47,34.21,34.21c3.32,3.32,8.71,3.32,12.03,0l2.87-2.87c3.32-3.32,3.32-8.74,0-12.06l-42.89-42.86c-3.23-3.23-8.44-3.32-11.79-.21-.78.42-1.5.99-2.15,1.65l-25.68,25.68-23.37-23.37c-3.32-3.32-8.53-3.53-12.06-.63-.81.45-1.56,1.02-2.24,1.71l-62.85,62.82v-67.52c0-29.27,23.76-53,53.03-53h95.38c29.3,0,53.03,23.73,53.03,53Z"/><text class="cls-1" transform="translate(256.28 152.43)"><tspan class="cls-5" x="0" y="0">alpe</tspan><tspan class="cls-4" x="286.49" y="0">fix</tspan></text><circle class="cls-4" cx="202.95" cy="118.62" r="7.39"/><circle class="cls-4" cx="100.12" cy="84.5" r="7.39"/></g></g></svg>