<?xml version="1.0" encoding="utf-8"?>
<!-- Generator: Adobe Illustrator 16.0.0, SVG Export Plug-In . SVG Version: 6.00 Build 0)  -->
<!DOCTYPE svg PUBLIC "-//W3C//DTD SVG 1.1//EN" "http://www.w3.org/Graphics/SVG/1.1/DTD/svg11.dtd">
<svg version="1.1" id="Layer_1" xmlns="http://www.w3.org/2000/svg" xmlns:xlink="http://www.w3.org/1999/xlink" x="0px" y="0px"
	 width="145.44px" height="148.32px" viewBox="0 0 145.44 148.32" enable-background="new 0 0 145.44 148.32" xml:space="preserve">
<g>
	<g>
		<path fill="#F9DC5C" d="M68.549,66.812c0,0.804,0.157,1.432,0.472,1.886c0.314,0.455,0.68,0.813,1.1,1.074
			c0.419,0.262,0.838,0.447,1.256,0.551c0.42,0.105,0.734,0.192,0.943,0.262v-7.337c-0.978,0.209-1.851,0.578-2.62,1.1
			C68.934,64.872,68.549,65.693,68.549,66.812z"/>
		<path fill="#F9DC5C" d="M79.185,80.616c-0.314-0.262-0.682-0.489-1.101-0.681c-0.419-0.193-0.855-0.375-1.31-0.55l-0.995-0.367
			v7.858c0.523-0.104,1.056-0.254,1.598-0.445c0.541-0.191,1.021-0.446,1.44-0.759c0.419-0.314,0.761-0.689,1.021-1.127
			c0.262-0.437,0.393-0.95,0.393-1.545c0-0.56-0.096-1.031-0.288-1.417C79.751,81.202,79.499,80.878,79.185,80.616z"/>
		<path fill="#F9DC5C" d="M140.086,120.983l-17.802-10.912c-0.565-0.348-1.492-0.915-2.058-1.263L102.42,97.896
			c-0.454-0.29-0.714-0.454-0.833-0.454c-0.16,0-0.069,0.293,0.142,0.982l5.847,20.048c0.186,0.637,0.489,1.68,0.676,2.317
			l5.846,20.046c0.099,0.341,0.265,0.515,0.449,0.515c0.16,0,0.335-0.133,0.488-0.403l6.003-10.488
			c0.175-0.305,0.425-0.46,0.682-0.46c0.228,0,0.461,0.123,0.651,0.372l7.84,10.264c0.236,0.31,0.598,0.474,0.962,0.474
			c0.255,0,0.513-0.08,0.73-0.247l3.525-2.691c0.527-0.402,0.629-1.164,0.227-1.692l-7.842-10.265
			c-0.403-0.528-0.207-1.095,0.436-1.262l11.698-3.035C140.589,121.751,140.651,121.33,140.086,120.983z"/>
		<g>
			<path fill="#F9DC5C" d="M106.058,131.229c-9.484,5.451-20.462,8.587-32.165,8.587c-35.719,0-64.779-29.06-64.779-64.779
				c0-35.721,29.06-64.781,64.779-64.781s64.78,29.06,64.78,64.781c0,12.234-3.413,23.689-9.333,33.461l5.716,3.504
				c6.547-10.793,10.321-23.447,10.321-36.965c0-39.417-32.067-71.486-71.484-71.486c-39.416,0-71.484,32.069-71.484,71.486
				c0,39.415,32.068,71.484,71.484,71.484c12.338,0,23.956-3.145,34.095-8.671L106.058,131.229z"/>
		</g>
		<g>
			<path fill="#F9DC5C" d="M96.912,99.867c-0.356-1.159-0.986-3.28,0.569-5.386c0.956-1.294,2.491-2.067,4.105-2.067
				c1.562,0,2.633,0.668,3.496,1.217l4.067,2.493c3.695-6.166,5.823-13.378,5.823-21.087c0-22.689-18.393-41.082-41.081-41.082
				c-22.688,0-41.081,18.393-41.081,41.082c0,22.688,18.392,41.08,41.081,41.08c9.514,0,18.265-3.242,25.229-8.672L96.912,99.867z
				 M87.41,87.244c-0.664,1.397-1.572,2.586-2.726,3.563c-1.151,0.977-2.496,1.746-4.033,2.305c-1.537,0.558-3.161,0.925-4.872,1.1
				v3.668h-3.458v-3.668c-2.304,0-4.602-0.314-6.888-0.943c-2.289-0.63-4.306-1.729-6.051-3.3l5.553-6.234
				c0.908,1.118,2.008,1.912,3.301,2.384c1.292,0.473,2.654,0.759,4.086,0.864v-8.854l-3.824-1.152
				c-2.655-0.84-4.672-2.019-6.051-3.538c-1.38-1.519-2.069-3.606-2.069-6.261c0-1.64,0.331-3.125,0.995-4.454
				c0.663-1.328,1.546-2.46,2.646-3.405c1.1-0.943,2.375-1.712,3.824-2.306c1.449-0.593,2.942-0.976,4.479-1.152v-3.667h3.458v3.667
				c1.886,0,3.841,0.246,5.867,0.733c2.025,0.489,3.807,1.345,5.345,2.568l-5.03,6.13c-0.838-0.735-1.8-1.267-2.882-1.6
				c-1.082-0.331-2.183-0.532-3.3-0.601v8.33l5.028,1.467c2.306,0.699,4.148,1.841,5.527,3.432c1.38,1.59,2.07,3.606,2.07,6.05
				C88.405,84.224,88.073,85.848,87.41,87.244z"/>
		</g>
	</g>
	<g>
		<path fill="#434C75" d="M66.14,64.402c0,0.804,0.157,1.433,0.472,1.886c0.314,0.455,0.68,0.813,1.1,1.074
			c0.419,0.262,0.838,0.447,1.256,0.552c0.42,0.105,0.734,0.191,0.944,0.262v-7.336c-0.978,0.209-1.851,0.578-2.62,1.1
			C66.524,62.462,66.14,63.284,66.14,64.402z"/>
		<path fill="#434C75" d="M76.774,78.207c-0.313-0.262-0.681-0.489-1.1-0.681c-0.419-0.193-0.856-0.375-1.311-0.55l-0.994-0.367
			v7.858c0.523-0.104,1.056-0.254,1.598-0.445c0.541-0.191,1.021-0.446,1.44-0.76s0.76-0.688,1.021-1.126
			c0.262-0.437,0.393-0.951,0.393-1.545c0-0.56-0.096-1.031-0.288-1.417C77.342,78.793,77.09,78.469,76.774,78.207z"/>
		<path fill="#434C75" d="M137.677,118.574l-17.802-10.913c-0.566-0.347-1.492-0.915-2.058-1.262L100.01,95.487
			c-0.454-0.29-0.713-0.454-0.833-0.454c-0.159,0-0.068,0.293,0.143,0.982l5.846,20.048c0.187,0.637,0.49,1.679,0.677,2.317
			l5.846,20.046c0.099,0.341,0.265,0.515,0.449,0.515c0.16,0,0.335-0.133,0.488-0.403l6.003-10.488
			c0.175-0.305,0.425-0.46,0.681-0.46c0.229,0,0.462,0.123,0.652,0.371l7.84,10.265c0.236,0.31,0.598,0.474,0.962,0.474
			c0.255,0,0.512-0.081,0.729-0.248l3.526-2.69c0.526-0.402,0.629-1.164,0.227-1.692l-7.842-10.265
			c-0.403-0.528-0.207-1.095,0.435-1.262l11.698-3.035C138.179,119.342,138.242,118.921,137.677,118.574z"/>
		<g>
			<path fill="#434C75" d="M103.648,128.82c-9.485,5.451-20.462,8.587-32.165,8.587c-35.72,0-64.779-29.06-64.779-64.78
				s29.06-64.78,64.779-64.78c35.719,0,64.779,29.06,64.779,64.78c0,12.235-3.412,23.689-9.332,33.462l5.715,3.504
				c6.548-10.793,10.322-23.447,10.322-36.966c0-39.417-32.067-71.485-71.484-71.485C32.068,1.142,0,33.21,0,72.627
				c0,39.416,32.068,71.484,71.484,71.484c12.338,0,23.956-3.144,34.095-8.67L103.648,128.82z"/>
		</g>
		<g>
			<path fill="#434C75" d="M94.502,97.458c-0.355-1.159-0.985-3.28,0.57-5.386c0.955-1.295,2.491-2.067,4.104-2.067
				c1.562,0,2.634,0.668,3.496,1.217l4.068,2.492c3.694-6.166,5.823-13.377,5.823-21.087c0-22.688-18.393-41.081-41.081-41.081
				c-22.689,0-41.081,18.393-41.081,41.081c0,22.688,18.392,41.081,41.081,41.081c9.514,0,18.265-3.242,25.229-8.672L94.502,97.458z
				 M85.001,84.834c-0.664,1.398-1.572,2.587-2.726,3.563c-1.151,0.978-2.496,1.747-4.033,2.305
				c-1.538,0.559-3.161,0.925-4.872,1.101v3.668h-3.458v-3.668c-2.305,0-4.602-0.314-6.889-0.943c-2.288-0.63-4.306-1.729-6.051-3.3
				l5.553-6.234c0.907,1.118,2.008,1.912,3.3,2.383c1.292,0.474,2.654,0.76,4.086,0.864v-8.854l-3.824-1.152
				c-2.655-0.84-4.672-2.019-6.051-3.537c-1.38-1.519-2.069-3.606-2.069-6.261c0-1.64,0.331-3.125,0.995-4.454
				c0.663-1.327,1.546-2.46,2.646-3.404c1.1-0.943,2.375-1.712,3.825-2.307c1.448-0.592,2.942-0.975,4.479-1.152v-3.666h3.458v3.666
				c1.886,0,3.841,0.246,5.867,0.733c2.025,0.49,3.807,1.346,5.345,2.568l-5.03,6.13c-0.838-0.735-1.8-1.267-2.882-1.599
				c-1.083-0.331-2.183-0.532-3.3-0.601v8.331l5.028,1.466c2.306,0.699,4.147,1.841,5.527,3.433c1.38,1.59,2.07,3.605,2.07,6.05
				C85.996,81.814,85.663,83.438,85.001,84.834z"/>
		</g>
	</g>
</g>
</svg>
