<svg xmlns="http://www.w3.org/2000/svg" id="Layer_1" data-name="Layer 1" viewBox="0 0 1000 1000"><defs><style>.cls-1{fill:#f8db66;}.cls-2{fill:#424b75;}</style></defs><rect class="cls-1" x="129.47" y="224.65" width="860.03" height="37.78"></rect><circle class="cls-1" cx="731.86" cy="186.68" r="25.21"></circle><circle class="cls-1" cx="811.1" cy="186.94" r="25.21"></circle><circle class="cls-1" cx="890.34" cy="187.2" r="25.21"></circle><path class="cls-1" d="M917.46,537.2H569.41V291H917.46ZM607.19,499.42H879.68V328.81H607.19Z"></path><rect class="cls-1" x="569.41" y="566.31" width="348.06" height="37.78"></rect><rect class="cls-1" x="569.41" y="637.32" width="348.06" height="37.78"></rect><rect class="cls-1" x="569.41" y="707.3" width="348.06" height="37.78"></rect><path class="cls-1" d="M194.82,291V522.89q8.52-.69,17.22-.7,10.4,0,20.56,1V328.81H505.09v378H423.21a215.78,215.78,0,0,1,1.9,28.48c0,3.12-.08,6.22-.22,9.3h118V291Z"></path><path class="cls-1" d="M215.19,600.63a16,16,0,0,1,16.12,16.11v4.34A130.15,130.15,0,0,1,276.25,636c5.89,3.41,11.16,9.3,11.16,18.6,0,11.78-9.3,20.76-21.07,20.76a22.62,22.62,0,0,1-10.85-2.79A118.58,118.58,0,0,0,229.76,662v47.11C276.87,721.81,297,741,297,775.74s-26.66,57-65.71,61.38v16.42a16.12,16.12,0,1,1-32.23,0V836.8A154.75,154.75,0,0,1,138,815.11c-6.51-4-10.54-10.23-10.54-18.6,0-12.08,9.3-21.07,21.39-21.07a22.6,22.6,0,0,1,12.08,4c13,8.37,25.42,14.26,39.68,17.36V747.54C156,735.45,134,718.41,134,681.52c0-34.09,26-57,65.09-61.06v-3.72A16,16,0,0,1,215.19,600.63ZM200.63,701.05V659.2c-14.88,2.17-21.39,9.61-21.39,19.53C179.24,688.34,183.58,694.85,200.63,701.05Zm29.13,54.24v43.08c14.57-2.17,22-9,22-20.15C251.77,768,246.5,761.18,229.76,755.29Z"></path><path class="cls-1" d="M130,110.42V538.58a211.41,211.41,0,0,1,37.78-11.77V148.2H951.2V779.33H420.53a212.2,212.2,0,0,1-11.72,37.79H989V110.42Z"></path><path class="cls-1" d="M212,924.19c-104.18,0-188.93-84.75-188.93-188.93S107.86,546.33,212,546.33,401,631.09,401,735.26,316.21,924.19,212,924.19Zm0-340.08c-83.34,0-151.15,67.81-151.15,151.15S128.7,886.41,212,886.41,363.19,818.6,363.19,735.26,295.38,584.11,212,584.11Z"></path><rect class="cls-2" x="116.86" y="212.04" width="860.03" height="37.78"></rect><circle class="cls-2" cx="719.25" cy="174.07" r="25.21"></circle><circle class="cls-2" cx="798.49" cy="174.33" r="25.21"></circle><circle class="cls-2" cx="877.73" cy="174.59" r="25.21"></circle><path class="cls-2" d="M904.85,524.59H556.8V278.42H904.85ZM594.58,486.81H867.07V316.2H594.58Z"></path><rect class="cls-2" x="556.8" y="553.7" width="348.06" height="37.78"></rect><rect class="cls-2" x="556.8" y="624.71" width="348.06" height="37.78"></rect><rect class="cls-2" x="556.8" y="694.69" width="348.06" height="37.78"></rect><path class="cls-2" d="M182.21,278.42V510.28q8.52-.69,17.22-.7,10.4,0,20.56,1V316.2H492.48v378H410.6a215.78,215.78,0,0,1,1.9,28.48c0,3.12-.08,6.22-.22,9.3h118V278.42Z"></path><path class="cls-2" d="M202.58,588a16,16,0,0,1,16.12,16.11v4.34a130.15,130.15,0,0,1,44.94,14.88c5.89,3.41,11.16,9.3,11.16,18.6,0,11.78-9.3,20.76-21.07,20.76a22.62,22.62,0,0,1-10.85-2.79,119.08,119.08,0,0,0-25.73-10.53V696.5c47.11,12.7,67.26,31.92,67.26,66.64s-26.66,57-65.71,61.37v16.42a16.12,16.12,0,1,1-32.23,0V824.19a154.75,154.75,0,0,1-61.06-21.69c-6.51-4-10.54-10.23-10.54-18.6,0-12.08,9.3-21.07,21.39-21.07a22.6,22.6,0,0,1,12.08,4c13,8.37,25.42,14.26,39.68,17.36V734.93c-44.63-12.09-66.64-29.13-66.64-66,0-34.09,26-57,65.09-61.06v-3.72A16,16,0,0,1,202.58,588ZM188,688.44V646.59c-14.88,2.17-21.39,9.61-21.39,19.53C166.63,675.73,171,682.24,188,688.44Zm29.13,54.24v43.08c14.57-2.17,22-9,22-20.15C239.16,755.39,233.89,748.57,217.15,742.68Z"></path><path class="cls-2" d="M117.37,97.81V526a211.41,211.41,0,0,1,37.78-11.77V135.59H938.59V766.73H407.92a212.35,212.35,0,0,1-11.72,37.78H976.38V97.81Z"></path><path class="cls-2" d="M199.43,911.58C95.25,911.58,10.5,826.83,10.5,722.65S95.25,533.72,199.43,533.72s188.93,84.76,188.93,188.93S303.6,911.58,199.43,911.58Zm0-340.08c-83.34,0-151.15,67.81-151.15,151.15S116.09,873.8,199.43,873.8,350.58,806,350.58,722.65,282.77,571.5,199.43,571.5Z"></path></svg>