<svg xmlns="http://www.w3.org/2000/svg" id="Layer_1" data-name="Layer 1" viewBox="0 0 1000 1000"><defs><style>.cls-1{fill:#f8db66;}.cls-2{fill:#424b75;}</style></defs><path class="cls-1" d="M594.9,490.6l-15.71-3.37a4.47,4.47,0,0,1-1.91-.92,4.53,4.53,0,0,1-1.27-1.7l-6.17-16.08a3.73,3.73,0,0,1,0-3.93L579,451.14a4.3,4.3,0,0,0,0-5.61l-15.89-13.84a4.3,4.3,0,0,0-5.24,0l-11.78,8.42a4.13,4.13,0,0,1-4.12,0l-15.52-5.43a4.12,4.12,0,0,1-1.4-1.53,4.17,4.17,0,0,1-.47-2l-2.8-16.08a4.29,4.29,0,0,0-5-2.62H496.16a4.31,4.31,0,0,0-4.12,3.36l-4.86,15.34a3.77,3.77,0,0,1-.76,1.69,3.83,3.83,0,0,1-1.48,1.11l-14,7.11a3.93,3.93,0,0,1-4.3,0l-12-9.91a4.31,4.31,0,0,0-4.86,0L434.25,447a4.32,4.32,0,0,0,0,5.43l7.86,12.15a4.91,4.91,0,0,1,0,3.93l-5.42,15.15a4.68,4.68,0,0,1-3.74,3.55l-16.27,4.49a4.37,4.37,0,0,0-2.29,1.52,4.3,4.3,0,0,0-.89,2.6v20a4.22,4.22,0,0,0,.91,2.75,4.33,4.33,0,0,0,2.45,1.55l16.65,3.36a4,4,0,0,1,1.81.83,3.89,3.89,0,0,1,1.18,1.6l6,13.28a4.11,4.11,0,0,1,0,3.93l-9,15.52a4.12,4.12,0,0,0,0,5.24l14.4,14a4.87,4.87,0,0,0,5.61,0l12.15-8.79a4.48,4.48,0,0,1,4.3,0l15.9,7.1a4.49,4.49,0,0,1,1.61,1.29,4.39,4.39,0,0,1,.82,1.89l2.81,16.08a4.49,4.49,0,0,0,4.3,3.56h21.32a4.49,4.49,0,0,0,4.3-3.56l2.43-16.83a4.29,4.29,0,0,1,2.43-3.36L541,568.4a4.87,4.87,0,0,1,4.3,0l13.28,9a4.11,4.11,0,0,0,5.42,0l15-15.7a4.28,4.28,0,0,0,0-5.43l-8.41-12.9a4.49,4.49,0,0,1,0-4.12l6-14.58a3.4,3.4,0,0,1,3-2.44l15.34-3.36a4.16,4.16,0,0,0,2.44-1.44,4.2,4.2,0,0,0,.93-2.68V496a4.23,4.23,0,0,0,.2-1.8,4.17,4.17,0,0,0-.6-1.71,4,4,0,0,0-1.27-1.29A4.11,4.11,0,0,0,594.9,490.6Zm-89,57a42.27,42.27,0,1,1,29.69-12.18A42.27,42.27,0,0,1,505.88,547.64Z"></path><path class="cls-1" d="M173.37,662C87.54,662,17.72,592.2,17.72,506.37S87.54,350.71,173.37,350.71,329,420.54,329,506.37,259.2,662,173.37,662Zm0-278.56a122.9,122.9,0,1,0,122.9,122.9A123,123,0,0,0,173.37,383.47Z"></path><path class="cls-1" d="M505.79,662C420,662,350.13,592.2,350.13,506.37S420,350.71,505.79,350.71s155.66,69.83,155.66,155.66S591.62,662,505.79,662Zm0-278.56a122.9,122.9,0,1,0,122.9,122.9A123,123,0,0,0,505.79,383.47Z"></path><path class="cls-1" d="M838.21,662c-85.83,0-155.66-69.83-155.66-155.66s69.83-155.66,155.66-155.66,155.66,69.83,155.66,155.66S924,662,838.21,662Zm0-278.56a122.9,122.9,0,1,0,122.9,122.9A123,123,0,0,0,838.21,383.47Z"></path><path class="cls-1" d="M173.82,560.52a67.9,67.9,0,1,1,67.89-67.89A68,68,0,0,1,173.82,560.52Zm0-103A35.14,35.14,0,1,0,209,492.63,35.18,35.18,0,0,0,173.82,457.49Z"></path><path class="cls-1" d="M267.47,629.15H234.71a60.9,60.9,0,1,0-121.79,0H80.16a93.66,93.66,0,1,1,187.31,0Z"></path><path class="cls-1" d="M838.56,598.65l-77.49-75.12a52.34,52.34,0,0,1,0-75.69c21.15-20.45,55.55-20.45,76.7,0l.87.84.79-.76c21.15-20.46,55.56-20.46,76.71,0a52.34,52.34,0,0,1,0,75.7ZM799.43,465.16a22.34,22.34,0,0,0-15.57,6.23h0a19.58,19.58,0,0,0,0,28.62l54.72,53,54.78-53a19.57,19.57,0,0,0,0-28.6,22.58,22.58,0,0,0-31.15,0l-23.57,22.79L815,471.39A22.38,22.38,0,0,0,799.43,465.16Z"></path><path class="cls-1" d="M522.17,366.22H489.41V218a41.58,41.58,0,0,0-41.53-41.54H231.29A41.58,41.58,0,0,0,189.75,218V366.22H157V218a74.38,74.38,0,0,1,74.3-74.3H447.88A74.38,74.38,0,0,1,522.17,218Z"></path><path class="cls-1" d="M780.3,867.91H563.7a74.38,74.38,0,0,1-74.29-74.29V645.36h32.76V793.62a41.58,41.58,0,0,0,41.53,41.53H780.3a41.58,41.58,0,0,0,41.53-41.53V645.36h32.76V793.62A74.38,74.38,0,0,1,780.3,867.91Z"></path><polygon class="cls-1" points="408.18 316.58 385.02 293.41 425.84 252.59 385.02 211.76 408.18 188.6 472.17 252.59 408.18 316.58"></polygon><rect class="cls-1" x="230.98" y="235.89" width="217.62" height="32.76"></rect><polygon class="cls-1" points="739.86 823.05 716.7 799.88 757.52 759.06 716.7 718.24 739.86 695.07 803.85 759.06 739.86 823.05"></polygon><rect class="cls-1" x="562.67" y="742.36" width="217.62" height="32.76"></rect><path class="cls-2" d="M583.32,479l-15.71-3.37a4.46,4.46,0,0,1-3.18-2.62L558.26,457a3.73,3.73,0,0,1,0-3.93l9.16-13.46a4.3,4.3,0,0,0,0-5.61l-15.9-13.84a4.29,4.29,0,0,0-5.23,0l-11.78,8.41a4.13,4.13,0,0,1-4.12,0l-15.52-5.42a4.09,4.09,0,0,1-1.87-3.55l-2.81-16.09a4.31,4.31,0,0,0-5-2.62H484.57a4.31,4.31,0,0,0-4.11,3.37l-4.86,15.34a3.75,3.75,0,0,1-2.25,2.8l-14,7.11a3.92,3.92,0,0,1-2.15.64,3.87,3.87,0,0,1-2.15-.64l-12-9.91a4.28,4.28,0,0,0-4.87,0l-15.52,15.89a4.32,4.32,0,0,0,0,5.43L430.53,453a4.91,4.91,0,0,1,0,3.93L425.1,472.1a4.64,4.64,0,0,1-3.74,3.55l-16.27,4.49a4.3,4.3,0,0,0-3.18,4.11v20a4.31,4.31,0,0,0,.92,2.76,4.27,4.27,0,0,0,2.45,1.54l16.64,3.37a4,4,0,0,1,1.82.82,4,4,0,0,1,1.18,1.61l6,13.28a4.11,4.11,0,0,1,0,3.93l-9,15.52a4.12,4.12,0,0,0,0,5.24l14.4,14a4.87,4.87,0,0,0,5.61,0l12.16-8.79a4.48,4.48,0,0,1,4.3,0l15.9,7.11A4.29,4.29,0,0,1,475.9,566a4.34,4.34,0,0,1,.82,1.89l2.8,16.08a4.51,4.51,0,0,0,4.31,3.56h21.32a4.61,4.61,0,0,0,2.77-1,4.51,4.51,0,0,0,1.53-2.53l2.43-16.83a4.32,4.32,0,0,1,.78-2,4.42,4.42,0,0,1,1.65-1.38l15.15-6.91a4.79,4.79,0,0,1,4.3,0l13.28,9a4.11,4.11,0,0,0,5.42,0l15-15.71a4.31,4.31,0,0,0,0-5.42L559,531.75a4.55,4.55,0,0,1,0-4.11l6-14.59a3.38,3.38,0,0,1,3-2.43l15.34-3.36a4.12,4.12,0,0,0,3.36-4.12v-18.7a4.08,4.08,0,0,0,.2-1.8,4,4,0,0,0-.59-1.71,4.12,4.12,0,0,0-1.27-1.29A4,4,0,0,0,583.32,479Zm-89,57A42.25,42.25,0,1,1,524,523.88,42.35,42.35,0,0,1,494.3,536.06Z"></path><path class="cls-2" d="M161.79,650.44C76,650.44,6.13,580.62,6.13,494.79S76,339.13,161.79,339.13,317.45,409,317.45,494.79,247.62,650.44,161.79,650.44Zm0-278.55a122.9,122.9,0,1,0,122.9,122.9A123,123,0,0,0,161.79,371.89Z"></path><path class="cls-2" d="M494.21,650.44c-85.83,0-155.66-69.82-155.66-155.65s69.83-155.66,155.66-155.66S649.87,409,649.87,494.79,580,650.44,494.21,650.44Zm0-278.55a122.9,122.9,0,1,0,122.9,122.9A123,123,0,0,0,494.21,371.89Z"></path><path class="cls-2" d="M826.63,650.44C740.8,650.44,671,580.62,671,494.79S740.8,339.13,826.63,339.13,982.28,409,982.28,494.79,912.46,650.44,826.63,650.44Zm0-278.55a122.9,122.9,0,1,0,122.9,122.9A123,123,0,0,0,826.63,371.89Z"></path><path class="cls-2" d="M162.23,548.94a67.9,67.9,0,1,1,67.9-67.89A68,68,0,0,1,162.23,548.94Zm0-103a35.14,35.14,0,1,0,35.14,35.14A35.17,35.17,0,0,0,162.23,445.91Z"></path><path class="cls-2" d="M255.89,617.56H223.13a60.9,60.9,0,0,0-121.79,0H68.58a93.66,93.66,0,0,1,187.31,0Z"></path><path class="cls-2" d="M827,587.07,749.49,512a52.34,52.34,0,0,1,0-75.69c21.15-20.45,55.55-20.45,76.7,0l.87.84.79-.77c21.15-20.45,55.56-20.45,76.7,0a52.33,52.33,0,0,1,0,75.71ZM787.85,453.58a22.38,22.38,0,0,0-15.58,6.23h0a19.59,19.59,0,0,0,0,28.61L827,541.47l54.78-53a19.58,19.58,0,0,0,0-28.61,22.6,22.6,0,0,0-31.15,0l-23.57,22.79-23.64-22.86A22.38,22.38,0,0,0,787.85,453.58Z"></path><path class="cls-2" d="M510.59,354.64H477.83V206.38a41.58,41.58,0,0,0-41.53-41.53H219.7a41.58,41.58,0,0,0-41.53,41.53V354.64H145.41V206.38a74.38,74.38,0,0,1,74.29-74.29H436.3a74.38,74.38,0,0,1,74.29,74.29Z"></path><path class="cls-2" d="M768.71,856.33H552.12A74.38,74.38,0,0,1,477.83,782V633.78h32.76V782a41.58,41.58,0,0,0,41.53,41.54H768.71A41.58,41.58,0,0,0,810.25,782V633.78H843V782A74.38,74.38,0,0,1,768.71,856.33Z"></path><polygon class="cls-2" points="396.6 304.99 373.44 281.83 414.26 241 373.44 200.18 396.6 177.02 460.59 241 396.6 304.99"></polygon><rect class="cls-2" x="219.4" y="224.3" width="217.62" height="32.76"></rect><polygon class="cls-2" points="728.28 811.47 705.12 788.3 745.94 747.48 705.12 706.65 728.28 683.49 792.27 747.48 728.28 811.47"></polygon><rect class="cls-2" x="551.08" y="730.78" width="217.62" height="32.76"></rect></svg>