<?xml version="1.0" encoding="utf-8"?>
<!-- Generator: Adobe Illustrator 16.0.0, SVG Export Plug-In . SVG Version: 6.00 Build 0)  -->
<!DOCTYPE svg PUBLIC "-//W3C//DTD SVG 1.1//EN" "http://www.w3.org/Graphics/SVG/1.1/DTD/svg11.dtd">
<svg version="1.1" id="Layer_1" xmlns="http://www.w3.org/2000/svg" xmlns:xlink="http://www.w3.org/1999/xlink" x="0px" y="0px"
	 width="145.44px" height="148.32px" viewBox="0 0 145.44 148.32" enable-background="new 0 0 145.44 148.32" xml:space="preserve">
<g>
	<g>
		<path fill="#F9DC5C" d="M131.119,60.129h4.504c5.498,0,9.994-4.049,9.994-9V13.924c0-4.951-4.496-9-9.994-9H58.74
			c-5.498,0-9.996,4.049-9.996,9v30.334H12.156c-4.949,0-9,4.049-9,9v37.205c0,4.951,4.051,9,9,9h36.588v28.334
			c0,4.949,4.498,9,9.996,9h56.877l-3,11.523l18.502-11.523h4.504c5.498,0,9.994-4.051,9.994-9V90.59c0-4.949-4.496-9-9.994-9
			h-45.24V60.129h25.234l-3,11.525L131.119,60.129z M13.91,58.023h31.029v4.797H13.91V58.023z M13.91,69.658h65.018v4.799H13.91
			V69.658z M78.928,81.295v4.799h-5.279v-4.799H78.928z M13.91,81.295h53.9v4.799h-53.9V81.295z M135.623,86.59
			c2.707,0,4.994,1.832,4.994,4v37.207c0,2.168-2.287,4-4.994,4h-4.504h-1.43l-1.215,0.756l-7.859,4.896l1.471-5.652h-6.469H58.74
			c-2.709,0-4.996-1.832-4.996-4V99.463h9.934l19.834,11.287l-5.479-11.287h3.35c4.949,0,9-4.049,9-9V86.59H135.623z M58.74,55.129
			c-2.709,0-4.996-1.83-4.996-4V13.924c0-2.168,2.287-4,4.996-4h76.883c2.707,0,4.994,1.832,4.994,4v37.205c0,2.17-2.287,4-4.994,4
			h-4.504h-1.43l-1.215,0.756l-7.859,4.896l1.471-5.652h-6.469H58.74z"/>
		<rect x="60.24" y="18.369" fill="#F9DC5C" width="73.447" height="4.797"/>
		<rect x="60.24" y="30.004" fill="#F9DC5C" width="73.447" height="4.799"/>
		<rect x="60.24" y="41.641" fill="#F9DC5C" width="61.941" height="4.799"/>
		<rect x="128.844" y="41.641" fill="#F9DC5C" width="5.279" height="4.799"/>
		<rect x="97.988" y="95.035" fill="#F9DC5C" width="35.699" height="4.799"/>
		<rect x="91.211" y="106.672" fill="#F9DC5C" width="42.477" height="4.799"/>
		<rect x="60.24" y="118.309" fill="#F9DC5C" width="61.941" height="4.797"/>
		<rect x="128.844" y="118.309" fill="#F9DC5C" width="5.279" height="4.797"/>
	</g>
	<g>
		<path fill="#434C75" d="M127.785,56.797h4.504c5.498,0,9.996-4.051,9.996-9V10.59c0-4.949-4.498-9-9.996-9H55.406
			c-5.498,0-9.994,4.051-9.994,9v30.334H8.824c-4.951,0-9,4.051-9,9v37.207c0,4.949,4.049,9,9,9h36.588v28.332
			c0,4.951,4.496,9,9.994,9h56.879l-3,11.523l18.5-11.523h4.504c5.498,0,9.996-4.049,9.996-9V87.258c0-4.951-4.498-9-9.996-9h-45.24
			V56.797h25.236l-3,11.523L127.785,56.797z M10.576,54.689h31.029v4.799H10.576V54.689z M10.576,66.326h65.018v4.799H10.576V66.326
			z M75.594,77.963v4.797h-5.277v-4.797H75.594z M10.576,77.963h53.902v4.797H10.576V77.963z M132.289,83.258
			c2.709,0,4.996,1.83,4.996,4v37.205c0,2.168-2.287,4-4.996,4h-4.504h-1.43l-1.213,0.756l-7.861,4.896l1.471-5.652h-6.467H55.406
			c-2.707,0-4.994-1.832-4.994-4V96.131h9.932l19.836,11.287l-5.48-11.287h3.35c4.951,0,9-4.051,9-9v-3.873H132.289z M55.406,51.797
			c-2.707,0-4.994-1.832-4.994-4V10.59c0-2.168,2.287-4,4.994-4h76.883c2.709,0,4.996,1.832,4.996,4v37.207c0,2.168-2.287,4-4.996,4
			h-4.504h-1.43l-1.213,0.756l-7.861,4.896l1.471-5.652h-6.467H55.406z"/>
		<rect x="56.906" y="15.035" fill="#434C75" width="73.449" height="4.799"/>
		<rect x="56.906" y="26.672" fill="#434C75" width="73.449" height="4.799"/>
		<rect x="56.906" y="38.309" fill="#434C75" width="61.941" height="4.797"/>
		<rect x="125.512" y="38.309" fill="#434C75" width="5.277" height="4.797"/>
		<rect x="94.654" y="91.701" fill="#434C75" width="35.701" height="4.799"/>
		<rect x="87.877" y="103.338" fill="#434C75" width="42.479" height="4.799"/>
		<rect x="56.906" y="114.975" fill="#434C75" width="61.941" height="4.797"/>
		<rect x="125.512" y="114.975" fill="#434C75" width="5.277" height="4.797"/>
	</g>
</g>
</svg>
