<svg xmlns="http://www.w3.org/2000/svg" id="Layer_1" data-name="Layer 1" viewBox="0 0 1000 1000"><defs><style>.cls-1{fill:#f8db66;}.cls-2{fill:#424b75;}</style></defs><path class="cls-1" d="M512.32,828.78a7.35,7.35,0,0,1,7.4,7.4v2A59.9,59.9,0,0,1,540.34,845a9.58,9.58,0,0,1,5.12,8.54,9.48,9.48,0,0,1-9.67,9.53,10.43,10.43,0,0,1-5-1.28,54.26,54.26,0,0,0-11.8-4.84v21.62c21.61,5.83,30.86,14.65,30.86,30.58s-12.23,26.17-30.15,28.16v7.53a7.4,7.4,0,1,1-14.79,0v-7.68a71,71,0,0,1-28-9.95,9.77,9.77,0,0,1,5-18.21,10.36,10.36,0,0,1,5.54,1.85,54.39,54.39,0,0,0,18.21,8V896.19c-20.48-5.54-30.58-13.36-30.58-30.29,0-15.64,11.95-26.17,29.87-28v-1.7A7.34,7.34,0,0,1,512.32,828.78Zm-6.68,46.08v-19.2c-6.83,1-9.82,4.41-9.82,9S497.82,872,505.64,874.86ZM519,899.75v19.77c6.68-1,10.09-4.13,10.09-9.25C529.1,905.58,526.69,902.45,519,899.75Z"></path><path class="cls-1" d="M510.87,988.25a97.69,97.69,0,1,1,97.69-97.69A97.8,97.8,0,0,1,510.87,988.25Zm0-164.26a66.58,66.58,0,1,0,66.57,66.57A66.65,66.65,0,0,0,510.87,824Z"></path><path class="cls-1" d="M451.44,789.42V637.22l-235-330.5V198.19H805.56V306.72l-235,330.5v92.64ZM247.56,296.78l235,330.5v111.8l56.88-28.44V627.28l235-330.5V229.31H247.56Z"></path><rect class="cls-1" x="232" y="286.19" width="558" height="31.11"></rect><path class="cls-1" d="M290,170.84A44.87,44.87,0,1,1,334.86,126,44.91,44.91,0,0,1,290,170.84Zm0-58.61A13.75,13.75,0,1,0,303.75,126,13.76,13.76,0,0,0,290,112.23Z"></path><path class="cls-1" d="M413,131.84A44.87,44.87,0,1,1,457.86,87,44.91,44.91,0,0,1,413,131.84Zm0-58.61A13.75,13.75,0,1,0,426.75,87,13.76,13.76,0,0,0,413,73.23Z"></path><path class="cls-1" d="M521,182.84A44.87,44.87,0,1,1,565.86,138,44.91,44.91,0,0,1,521,182.84Zm0-58.61A13.75,13.75,0,1,0,534.75,138,13.76,13.76,0,0,0,521,124.23Z"></path><path class="cls-1" d="M624,111.84A44.87,44.87,0,1,1,668.86,67,44.91,44.91,0,0,1,624,111.84Zm0-58.61A13.75,13.75,0,1,0,637.75,67,13.76,13.76,0,0,0,624,53.23Z"></path><path class="cls-1" d="M732,160.84A44.87,44.87,0,1,1,776.86,116,44.91,44.91,0,0,1,732,160.84Zm0-58.61A13.75,13.75,0,1,0,745.75,116,13.76,13.76,0,0,0,732,102.23Z"></path><path class="cls-2" d="M499.87,977.25a97.69,97.69,0,1,1,97.69-97.69A97.8,97.8,0,0,1,499.87,977.25Zm0-164.26a66.58,66.58,0,1,0,66.57,66.57A66.65,66.65,0,0,0,499.87,813Z"></path><path class="cls-2" d="M501.32,817.78a7.35,7.35,0,0,1,7.4,7.4v2A59.9,59.9,0,0,1,529.34,834a9.58,9.58,0,0,1,5.12,8.54,9.48,9.48,0,0,1-9.67,9.53,10.43,10.43,0,0,1-5-1.28,54.26,54.26,0,0,0-11.8-4.84v21.62c21.61,5.83,30.86,14.65,30.86,30.58s-12.23,26.17-30.15,28.16v7.53a7.4,7.4,0,1,1-14.79,0v-7.68a71,71,0,0,1-28-9.95,9.77,9.77,0,0,1,5-18.21,10.36,10.36,0,0,1,5.54,1.85,54.39,54.39,0,0,0,18.21,8V885.19c-20.48-5.54-30.58-13.36-30.58-30.29,0-15.64,11.95-26.17,29.87-28v-1.7A7.34,7.34,0,0,1,501.32,817.78Zm-6.68,46.08v-19.2c-6.83,1-9.82,4.41-9.82,9S486.82,861,494.64,863.86ZM508,888.75v19.77c6.68-1,10.09-4.13,10.09-9.25C518.1,894.58,515.69,891.45,508,888.75Z"></path><path class="cls-2" d="M440.44,778.42V626.22l-235-330.5V187.19H794.56V295.72l-235,330.5v92.64ZM236.56,285.78l235,330.5v111.8l56.88-28.44V616.28l235-330.5V218.31H236.56Z"></path><rect class="cls-2" x="221" y="275.19" width="558" height="31.11"></rect><path class="cls-2" d="M279,159.84A44.87,44.87,0,1,1,323.86,115,44.91,44.91,0,0,1,279,159.84Zm0-58.61A13.75,13.75,0,1,0,292.75,115,13.76,13.76,0,0,0,279,101.23Z"></path><path class="cls-2" d="M402,120.84A44.87,44.87,0,1,1,446.86,76,44.91,44.91,0,0,1,402,120.84Zm0-58.61A13.75,13.75,0,1,0,415.75,76,13.76,13.76,0,0,0,402,62.23Z"></path><path class="cls-2" d="M510,171.84A44.87,44.87,0,1,1,554.86,127,44.91,44.91,0,0,1,510,171.84Zm0-58.61A13.75,13.75,0,1,0,523.75,127,13.76,13.76,0,0,0,510,113.23Z"></path><path class="cls-2" d="M613,100.84A44.87,44.87,0,1,1,657.86,56,44.91,44.91,0,0,1,613,100.84Zm0-58.61A13.75,13.75,0,1,0,626.75,56,13.76,13.76,0,0,0,613,42.23Z"></path><path class="cls-2" d="M721,149.84A44.87,44.87,0,1,1,765.86,105,44.91,44.91,0,0,1,721,149.84Zm0-58.61A13.75,13.75,0,1,0,734.75,105,13.76,13.76,0,0,0,721,91.23Z"></path></svg>