<svg xmlns="http://www.w3.org/2000/svg" id="Layer_1" data-name="Layer 1" viewBox="0 0 1000 1000"><defs><style>.cls-1{fill:#f8db66;}.cls-2{fill:#424b75;}</style></defs><path class="cls-1" d="M505.87,760.44a249.63,249.63,0,1,1,176.51-73.11A248,248,0,0,1,505.87,760.44Zm0-466c-119.33,0-216.41,97.08-216.41,216.41s97.08,216.41,216.41,216.41,216.41-97.09,216.41-216.41S625.2,294.41,505.87,294.41Z"></path><path class="cls-1" d="M505.87,234a106.9,106.9,0,1,1,106.9-106.89A107,107,0,0,1,505.87,234Zm0-180.57a73.68,73.68,0,1,0,73.68,73.68A73.77,73.77,0,0,0,505.87,53.46Z"></path><rect class="cls-1" x="488.73" y="209.75" width="33.22" height="68.33"></rect><path class="cls-1" d="M505.87,991.5a106.9,106.9,0,1,1,106.9-106.89A107,107,0,0,1,505.87,991.5Zm0-180.57a73.68,73.68,0,1,0,73.68,73.68A73.77,73.77,0,0,0,505.87,810.93Z"></path><rect class="cls-1" x="489.8" y="733.67" width="33.22" height="68.33"></rect><path class="cls-1" d="M884.61,612.77A106.9,106.9,0,1,1,991.5,505.87,107,107,0,0,1,884.61,612.77Zm0-180.58a73.68,73.68,0,1,0,73.67,73.68A73.77,73.77,0,0,0,884.61,432.19Z"></path><rect class="cls-1" x="733.67" y="488.73" width="68.33" height="33.22"></rect><path class="cls-1" d="M127.14,612.77A106.9,106.9,0,1,1,234,505.87,107,107,0,0,1,127.14,612.77Zm0-180.58a73.68,73.68,0,1,0,73.68,73.68A73.77,73.77,0,0,0,127.14,432.19Z"></path><rect class="cls-1" x="209.75" y="489.8" width="68.33" height="33.22"></rect><path class="cls-1" d="M773.68,344.91a106.81,106.81,0,1,1,75.58-31.26A106.56,106.56,0,0,1,773.68,344.91Zm0-180.49A73.63,73.63,0,1,0,825.78,186,73.42,73.42,0,0,0,773.68,164.42Z"></path><rect class="cls-1" x="656.56" y="303.65" width="68.33" height="33.22" transform="translate(-24.15 582.22) rotate(-45)"></rect><path class="cls-1" d="M238.07,880.52a106.81,106.81,0,1,1,75.58-31.26A106.56,106.56,0,0,1,238.07,880.52Zm0-180.49a73.63,73.63,0,1,0,52.09,21.55A73.46,73.46,0,0,0,238.07,700Z"></path><rect class="cls-1" x="286.85" y="674.87" width="68.33" height="33.22" transform="translate(-394.93 429.53) rotate(-45)"></rect><path class="cls-1" d="M773.68,880.52a106.56,106.56,0,0,1-75.59-31.26h0a107,107,0,1,1,75.59,31.26Zm0-180.49a73.63,73.63,0,1,0,52.1,21.55A73.46,73.46,0,0,0,773.68,700Z"></path><rect class="cls-1" x="674.87" y="656.56" width="33.22" height="68.33" transform="translate(-285.89 691.26) rotate(-45)"></rect><path class="cls-1" d="M238.07,344.91a106.87,106.87,0,1,1,75.58-182.43h0a106.85,106.85,0,0,1-75.58,182.43Zm0-180.49A73.63,73.63,0,1,0,290.16,186,73.42,73.42,0,0,0,238.07,164.42Z"></path><rect class="cls-1" x="303.65" y="286.85" width="33.22" height="68.33" transform="translate(-133.19 320.48) rotate(-45)"></rect><path class="cls-1" d="M505.34,929.44a49.81,49.81,0,1,1,49.8-49.8A49.86,49.86,0,0,1,505.34,929.44Zm0-66.39a16.59,16.59,0,1,0,16.59,16.59A16.61,16.61,0,0,0,505.34,863.05Z"></path><path class="cls-1" d="M571.74,967.61H538.53a33.19,33.19,0,1,0-66.38,0H438.93a66.41,66.41,0,0,1,132.81,0Z"></path><path class="cls-1" d="M773.31,810.94a49.81,49.81,0,1,1,49.8-49.81A49.86,49.86,0,0,1,773.31,810.94Zm0-66.4a16.59,16.59,0,1,0,16.59,16.59A16.61,16.61,0,0,0,773.31,744.54Z"></path><path class="cls-1" d="M839.71,849.11H806.5a33.19,33.19,0,0,0-66.38,0H706.9a66.41,66.41,0,1,1,132.81,0Z"></path><path class="cls-1" d="M238.44,810.94a49.81,49.81,0,1,1,49.8-49.81A49.86,49.86,0,0,1,238.44,810.94Zm0-66.4A16.59,16.59,0,1,0,255,761.13,16.61,16.61,0,0,0,238.44,744.54Z"></path><path class="cls-1" d="M304.84,849.11H271.63a33.19,33.19,0,1,0-66.38,0H172a66.41,66.41,0,1,1,132.81,0Z"></path><path class="cls-1" d="M884.34,544a49.81,49.81,0,1,1,49.8-49.81A49.87,49.87,0,0,1,884.34,544Zm0-66.4a16.59,16.59,0,1,0,16.59,16.59A16.61,16.61,0,0,0,884.34,477.64Z"></path><path class="cls-1" d="M950.74,582.21H917.53a33.19,33.19,0,1,0-66.38,0H817.93a66.41,66.41,0,1,1,132.81,0Z"></path><path class="cls-1" d="M127.4,544a49.81,49.81,0,1,1,49.81-49.81A49.86,49.86,0,0,1,127.4,544Zm0-66.4A16.59,16.59,0,1,0,144,494.23,16.61,16.61,0,0,0,127.4,477.64Z"></path><path class="cls-1" d="M193.81,582.21H160.59a33.19,33.19,0,1,0-66.37,0H61a66.41,66.41,0,1,1,132.81,0Z"></path><path class="cls-1" d="M506.41,164a49.81,49.81,0,1,1,49.8-49.81A49.86,49.86,0,0,1,506.41,164Zm0-66.4A16.59,16.59,0,1,0,523,114.16,16.61,16.61,0,0,0,506.41,97.57Z"></path><path class="cls-1" d="M572.81,202.14H539.59a33.19,33.19,0,1,0-66.37,0H440a66.41,66.41,0,1,1,132.81,0Z"></path><path class="cls-1" d="M238.44,277.13a49.81,49.81,0,1,1,49.8-49.8A49.86,49.86,0,0,1,238.44,277.13Zm0-66.39A16.59,16.59,0,1,0,255,227.33,16.61,16.61,0,0,0,238.44,210.74Z"></path><path class="cls-1" d="M304.84,315.3H271.63a33.19,33.19,0,0,0-66.38,0H172a66.41,66.41,0,0,1,132.81,0Z"></path><path class="cls-1" d="M773.31,277.13a49.81,49.81,0,1,1,49.8-49.8A49.86,49.86,0,0,1,773.31,277.13Zm0-66.39a16.59,16.59,0,1,0,16.59,16.59A16.61,16.61,0,0,0,773.31,210.74Z"></path><path class="cls-1" d="M839.71,315.3H806.5a33.19,33.19,0,0,0-66.38,0H706.9a66.41,66.41,0,0,1,132.81,0Z"></path><path class="cls-1" d="M377.85,559.66a56.24,56.24,0,0,1-6.47-112.1l94.92-11.18,13.15,111.7-94.91,11.18A55.85,55.85,0,0,1,377.85,559.66Zm59.34-86.4-61.92,7.29a23,23,0,0,0,5.39,45.73l61.92-7.3Z"></path><path class="cls-1" d="M594.32,593.15l-148.54-47L434,446l133.76-78.51ZM476.26,520.94l79.06,25L540.7,421.86l-71.19,41.79Z"></path><path class="cls-1" d="M384.07,660,368.48,527.71l77.74-9.16L461.8,650.88Zm21.29-103.22,7.81,66.35,11.76-1.39-7.81-66.34Z"></path><rect class="cls-1" x="609.24" y="456.46" width="61.92" height="33.22" transform="translate(-50.95 78.14) rotate(-6.72)"></rect><rect class="cls-1" x="599.4" y="393.7" width="67.64" height="33.22" transform="translate(-120.61 377.73) rotate(-30.47)"></rect><rect class="cls-1" x="631.39" y="501.92" width="33.22" height="67.64" transform="translate(-54.05 998.41) rotate(-72.97)"></rect><path class="cls-2" d="M494.13,748.7a249.63,249.63,0,1,1,176.51-73.12A248,248,0,0,1,494.13,748.7Zm0-466c-119.33,0-216.41,97.08-216.41,216.41S374.8,715.48,494.13,715.48,710.54,618.4,710.54,499.07,613.46,282.66,494.13,282.66Z"></path><path class="cls-2" d="M494.13,222.29A106.9,106.9,0,1,1,601,115.39,107,107,0,0,1,494.13,222.29Zm0-180.57a73.68,73.68,0,1,0,73.68,73.67A73.76,73.76,0,0,0,494.13,41.72Z"></path><rect class="cls-2" x="476.99" y="198.01" width="33.22" height="68.33"></rect><path class="cls-2" d="M494.13,979.76A106.9,106.9,0,1,1,601,872.86,107,107,0,0,1,494.13,979.76Zm0-180.58a73.68,73.68,0,1,0,73.68,73.68A73.77,73.77,0,0,0,494.13,799.18Z"></path><rect class="cls-2" x="478.05" y="721.92" width="33.22" height="68.33"></rect><path class="cls-2" d="M872.86,601a106.9,106.9,0,1,1,106.9-106.89A107,107,0,0,1,872.86,601Zm0-180.57a73.68,73.68,0,1,0,73.68,73.68A73.77,73.77,0,0,0,872.86,420.45Z"></path><rect class="cls-2" x="721.92" y="476.99" width="68.33" height="33.22"></rect><path class="cls-2" d="M115.39,601a106.9,106.9,0,1,1,106.9-106.89A107,107,0,0,1,115.39,601Zm0-180.57a73.68,73.68,0,1,0,73.68,73.68A73.76,73.76,0,0,0,115.39,420.45Z"></path><rect class="cls-2" x="198.01" y="478.05" width="68.33" height="33.22"></rect><path class="cls-2" d="M761.93,333.17a106.81,106.81,0,1,1,75.59-31.26A106.55,106.55,0,0,1,761.93,333.17Zm0-180.49A73.61,73.61,0,1,0,814,174.22,73.49,73.49,0,0,0,761.93,152.68Z"></path><rect class="cls-2" x="644.82" y="291.91" width="68.33" height="33.22" transform="translate(-19.29 570.48) rotate(-45)"></rect><path class="cls-2" d="M226.32,868.78a106.81,106.81,0,1,1,75.59-31.26A106.55,106.55,0,0,1,226.32,868.78Zm0-180.49a73.63,73.63,0,1,0,52.1,21.55A73.45,73.45,0,0,0,226.32,688.29Z"></path><rect class="cls-2" x="275.11" y="663.13" width="68.33" height="33.22" transform="translate(-390.06 417.78) rotate(-45)"></rect><path class="cls-2" d="M761.93,868.78a106.55,106.55,0,0,1-75.58-31.26h0a107,107,0,1,1,75.58,31.26Zm0-180.49A73.63,73.63,0,1,0,814,709.84,73.45,73.45,0,0,0,761.93,688.29Z"></path><rect class="cls-2" x="663.13" y="644.82" width="33.22" height="68.33" transform="translate(-281.02 679.52) rotate(-45)"></rect><path class="cls-2" d="M226.32,333.17a106.87,106.87,0,1,1,75.59-182.43h0a106.85,106.85,0,0,1-75.59,182.43Zm0-180.49a73.61,73.61,0,1,0,52.1,21.54A73.49,73.49,0,0,0,226.32,152.68Z"></path><rect class="cls-2" x="291.91" y="275.11" width="33.22" height="68.33" transform="translate(-128.33 308.74) rotate(-45)"></rect><path class="cls-2" d="M493.59,917.7a49.81,49.81,0,1,1,49.81-49.81A49.86,49.86,0,0,1,493.59,917.7Zm0-66.4a16.59,16.59,0,1,0,16.59,16.59A16.62,16.62,0,0,0,493.59,851.3Z"></path><path class="cls-2" d="M560,955.87H526.78a33.19,33.19,0,1,0-66.38,0H427.19a66.41,66.41,0,1,1,132.81,0Z"></path><path class="cls-2" d="M761.56,799.19a49.81,49.81,0,1,1,49.81-49.8A49.86,49.86,0,0,1,761.56,799.19Zm0-66.39a16.59,16.59,0,1,0,16.59,16.59A16.61,16.61,0,0,0,761.56,732.8Z"></path><path class="cls-2" d="M828,837.36H794.75a33.19,33.19,0,0,0-66.38,0H695.16a66.41,66.41,0,0,1,132.81,0Z"></path><path class="cls-2" d="M226.69,799.19a49.81,49.81,0,1,1,49.81-49.8A49.86,49.86,0,0,1,226.69,799.19Zm0-66.39a16.59,16.59,0,1,0,16.59,16.59A16.61,16.61,0,0,0,226.69,732.8Z"></path><path class="cls-2" d="M293.1,837.36H259.88a33.19,33.19,0,1,0-66.38,0H160.29a66.41,66.41,0,0,1,132.81,0Z"></path><path class="cls-2" d="M872.6,532.29a49.81,49.81,0,1,1,49.8-49.8A49.86,49.86,0,0,1,872.6,532.29Zm0-66.39a16.59,16.59,0,1,0,16.59,16.59A16.61,16.61,0,0,0,872.6,465.9Z"></path><path class="cls-2" d="M939,570.46H905.78a33.19,33.19,0,1,0-66.37,0H806.19a66.41,66.41,0,0,1,132.81,0Z"></path><path class="cls-2" d="M115.66,532.29a49.81,49.81,0,1,1,49.81-49.8A49.86,49.86,0,0,1,115.66,532.29Zm0-66.39a16.59,16.59,0,1,0,16.59,16.59A16.61,16.61,0,0,0,115.66,465.9Z"></path><path class="cls-2" d="M182.07,570.46H148.85a33.19,33.19,0,0,0-66.38,0H49.26a66.41,66.41,0,0,1,132.81,0Z"></path><path class="cls-2" d="M494.66,152.22a49.81,49.81,0,1,1,49.81-49.8A49.86,49.86,0,0,1,494.66,152.22Zm0-66.39a16.59,16.59,0,1,0,16.59,16.59A16.61,16.61,0,0,0,494.66,85.83Z"></path><path class="cls-2" d="M561.07,190.39H527.85a33.19,33.19,0,1,0-66.38,0H428.26a66.41,66.41,0,0,1,132.81,0Z"></path><path class="cls-2" d="M226.69,265.39a49.81,49.81,0,1,1,49.81-49.81A49.86,49.86,0,0,1,226.69,265.39Zm0-66.4a16.6,16.6,0,1,0,16.59,16.59A16.61,16.61,0,0,0,226.69,199Z"></path><path class="cls-2" d="M293.1,303.56H259.88a33.19,33.19,0,0,0-66.38,0H160.29a66.41,66.41,0,1,1,132.81,0Z"></path><path class="cls-2" d="M761.56,265.39a49.81,49.81,0,1,1,49.81-49.81A49.86,49.86,0,0,1,761.56,265.39Zm0-66.4a16.6,16.6,0,1,0,16.59,16.59A16.62,16.62,0,0,0,761.56,199Z"></path><path class="cls-2" d="M828,303.56H794.75a33.19,33.19,0,0,0-66.38,0H695.16a66.41,66.41,0,1,1,132.81,0Z"></path><path class="cls-2" d="M366.11,547.91a56.24,56.24,0,0,1-6.47-112.09l94.91-11.18,13.16,111.7L372.8,547.52A58,58,0,0,1,366.11,547.91Zm59.34-86.4-61.92,7.3a23,23,0,1,0,5.38,45.72l61.93-7.29Z"></path><path class="cls-2" d="M582.58,581.41,434,534.39,422.24,434.25,556,355.73ZM464.51,509.19l79.07,25L529,410.12l-71.2,41.79Z"></path><path class="cls-2" d="M372.33,648.29,356.74,516l77.73-9.16,15.59,132.32Zm21.28-103.22,7.82,66.35L413.19,610l-7.82-66.35Z"></path><rect class="cls-2" x="597.5" y="444.72" width="61.92" height="33.22" transform="translate(-49.65 76.69) rotate(-6.72)"></rect><rect class="cls-2" x="587.66" y="381.95" width="67.64" height="33.22" transform="translate(-116.27 370.15) rotate(-30.47)"></rect><rect class="cls-2" x="619.65" y="490.18" width="33.22" height="67.64" transform="translate(-51.12 978.87) rotate(-72.97)"></rect></svg>