<svg id="Layer_1" data-name="Layer 1" xmlns="http://www.w3.org/2000/svg" viewBox="0 0 1000 1000"><defs><style>.cls-1,.cls-3{fill:none;stroke-width:31.11px;}.cls-1{stroke:#f8db66;}.cls-1,.cls-3,.cls-4{stroke-miterlimit:10;}.cls-2{fill:#f8db66;}.cls-3,.cls-4{stroke:#424b75;}.cls-4,.cls-5{fill:#424b75;}</style></defs><path class="cls-1" d="M190.24,593H284l103.78-93.54L387.13,593H718.49A58.46,58.46,0,0,1,777,651.44v263.1A58.47,58.47,0,0,1,718.49,973H190.24a58.46,58.46,0,0,1-58.46-58.46V651.44A58.46,58.46,0,0,1,190.24,593Z"/><path class="cls-1" d="M821.85,419.11H728.12L624.33,512.66l.64-93.55H293.61a58.46,58.46,0,0,1-58.47-58.46V97.56a58.47,58.47,0,0,1,58.47-58.47H821.85a58.47,58.47,0,0,1,58.47,58.47V360.65A58.46,58.46,0,0,1,821.85,419.11Z"/><circle class="cls-1" cx="601.6" cy="237.41" r="104.57"/><path class="cls-2" d="M638.65,259.2A40.87,40.87,0,0,1,558.15,245"/><circle class="cls-2" cx="565.88" cy="201.21" r="18.03"/><circle class="cls-2" cx="646.37" cy="215.4" r="18.03"/><line class="cls-1" x1="383.45" y1="236.81" x2="448.36" y2="236.81"/><line class="cls-1" x1="413.39" y1="150.16" x2="459.29" y2="196.06"/><line class="cls-1" x1="459.29" y1="277.56" x2="413.39" y2="323.47"/><circle class="cls-1" cx="408.09" cy="786.7" r="104.57"/><path class="cls-2" d="M450.35,794.5a40.87,40.87,0,0,1-80.49,14.2"/><circle class="cls-2" cx="362.14" cy="764.9" r="18.03"/><circle class="cls-2" cx="442.63" cy="750.71" r="18.03"/><line class="cls-1" x1="627.56" y1="786.1" x2="562.65" y2="786.1"/><line class="cls-1" x1="597.62" y1="872.75" x2="551.72" y2="826.85"/><line class="cls-1" x1="551.72" y1="745.35" x2="597.62" y2="699.44"/><path class="cls-3" d="M178.15,580.89h93.73l103.79-93.55L375,580.89H706.39a58.46,58.46,0,0,1,58.47,58.46V902.44a58.47,58.47,0,0,1-58.47,58.47H178.15a58.47,58.47,0,0,1-58.47-58.47V639.35A58.46,58.46,0,0,1,178.15,580.89Z"/><path class="cls-3" d="M809.76,407H716L612.24,500.56l.63-93.54H281.51a58.46,58.46,0,0,1-58.46-58.46V85.46A58.47,58.47,0,0,1,281.51,27H809.76a58.46,58.46,0,0,1,58.46,58.46v263.1A58.46,58.46,0,0,1,809.76,407Z"/><circle class="cls-3" cx="589.51" cy="225.32" r="104.57"/><path class="cls-4" d="M626.55,247.11a40.87,40.87,0,1,1-80.49-14.19"/><circle class="cls-4" cx="553.78" cy="189.12" r="18.03"/><circle class="cls-4" cx="634.27" cy="203.31" r="18.03"/><line class="cls-3" x1="371.36" y1="224.72" x2="436.27" y2="224.72"/><line class="cls-3" x1="401.3" y1="138.07" x2="447.2" y2="183.97"/><line class="cls-3" x1="447.2" y1="265.47" x2="401.3" y2="311.37"/><circle class="cls-3" cx="396" cy="774.61" r="104.57"/><path class="cls-5" d="M438.26,782.41a40.87,40.87,0,0,1-80.49,14.19"/><circle class="cls-5" cx="350.04" cy="752.81" r="18.03"/><circle class="cls-5" cx="430.54" cy="738.61" r="18.03"/><line class="cls-3" x1="615.47" y1="774.01" x2="550.55" y2="774.01"/><line class="cls-3" x1="585.53" y1="860.66" x2="539.63" y2="814.76"/><line class="cls-3" x1="539.63" y1="733.25" x2="585.53" y2="687.35"/></svg>