<svg id="Layer_1" data-name="Layer 1" xmlns="http://www.w3.org/2000/svg" viewBox="0 0 1000 1000"><defs><style>.cls-1{fill:#f8db66;}.cls-2,.cls-4{fill:none;stroke-miterlimit:10;stroke-width:31.11px;}.cls-2{stroke:#f8db66;}.cls-3{fill:#424b75;}.cls-4{stroke:#424b75;}</style></defs><path class="cls-1" d="M524.1,648.92V623.59l5.3-.59c22.54-2.51,41.38-10.11,54.49-22s20.21-28.16,20.21-46.81c0-19.8-5.6-34.53-17.65-46.36s-31.73-21.44-59.83-29l-4.4-1.19V408l7.45,1.93c9.94,2.58,20.92,7.07,32.64,13.35A21.83,21.83,0,0,0,572.7,426c11.24,0,19.71-8.31,19.71-19.33,0-7.52-3.57-13.41-10.61-17.48-15.7-8.76-32.94-14.46-52.61-17.38L524.1,371V360.61a13.66,13.66,0,1,0-27.32,0v9.91l-5.35.55c-45.58,4.7-73.9,30.92-73.9,68.41,0,39.25,20.8,59.48,76.73,74.63l4.4,1.19v72l-7.22-1.57c-16.85-3.66-32.35-10.43-50.26-22a21.75,21.75,0,0,0-11.5-4c-11.44,0-20.08,8.46-20.08,19.69,0,7.56,3.37,13.47,10,17.58a183.82,183.82,0,0,0,72,25.57l5.21.66v25.63a13.66,13.66,0,1,0,27.32,0Zm-1.88-128,7.93,2.79c21.57,7.59,30.78,17.63,30.78,33.55,0,22.34-20,28.65-31.88,30.43l-6.83,1Zm-23.56-49.12-8-2.9c-21.56-7.84-30-17-30-32.77,0-16,11.34-26.79,31.13-29.68l6.82-1Z"/><path class="cls-2" d="M42,318.23V99.52a59.59,59.59,0,0,1,59.59-59.6H320.32"/><path class="cls-2" d="M692.79,40.52H911.51a59.6,59.6,0,0,1,59.6,59.59V318.83"/><path class="cls-2" d="M971.11,693.69V912.4a59.6,59.6,0,0,1-59.6,59.6H692.79"/><path class="cls-2" d="M320.32,971.4H101.6A59.59,59.59,0,0,1,42,911.81V693.09"/><circle class="cls-2" cx="506.85" cy="504.77" r="232.42"/><line class="cls-2" x1="507.45" y1="272.34" x2="507.45" y2="104.28"/><line class="cls-2" x1="507.45" y1="905.25" x2="507.45" y2="737.19"/><line class="cls-2" x1="739.87" y1="504.77" x2="907.93" y2="504.77"/><line class="cls-2" x1="106.96" y1="504.77" x2="275.03" y2="504.77"/><circle class="cls-2" cx="506.85" cy="504.77" r="311.34"/><path class="cls-3" d="M511,637V611.67l5.3-.59c22.54-2.5,41.38-10.11,54.49-22S591,560.93,591,542.28c0-19.8-5.61-34.53-17.65-46.36s-31.73-21.44-59.83-29l-4.41-1.18V396.09l7.46,1.93c9.94,2.58,20.92,7.07,32.64,13.35a21.83,21.83,0,0,0,10.39,2.69c11.23,0,19.7-8.31,19.7-19.33,0-7.52-3.57-13.41-10.61-17.48-15.69-8.76-32.93-14.46-52.6-17.38l-5.09-.75V348.69a13.67,13.67,0,0,0-27.33,0v9.91l-5.34.55c-45.59,4.7-73.9,30.92-73.9,68.41,0,39.25,20.79,59.48,76.73,74.63l4.4,1.19v72l-7.22-1.57c-16.85-3.66-32.35-10.43-50.26-21.94a21.68,21.68,0,0,0-11.5-4c-11.45,0-20.08,8.47-20.08,19.7,0,7.55,3.37,13.46,10,17.57a183.83,183.83,0,0,0,71.95,25.57l5.21.66V637A13.67,13.67,0,1,0,511,637ZM509.1,509l7.94,2.79c21.57,7.59,30.78,17.63,30.78,33.55,0,22.34-20,28.65-31.88,30.43l-6.84,1Zm-23.55-49.12-8-2.9c-21.57-7.84-30-17-30-32.77,0-16,11.35-26.79,31.14-29.68l6.82-1Z"/><path class="cls-4" d="M28.89,306.31V87.6A59.6,59.6,0,0,1,88.49,28H307.21"/><path class="cls-4" d="M679.68,28.6H898.4A59.59,59.59,0,0,1,958,88.19V306.91"/><path class="cls-4" d="M958,681.77V900.48a59.59,59.59,0,0,1-59.59,59.6H679.68"/><path class="cls-4" d="M307.21,959.48H88.49a59.6,59.6,0,0,1-59.6-59.59V681.17"/><circle class="cls-4" cx="493.74" cy="492.85" r="232.42"/><line class="cls-4" x1="494.34" y1="260.42" x2="494.34" y2="92.36"/><line class="cls-4" x1="494.34" y1="893.33" x2="494.34" y2="725.27"/><line class="cls-4" x1="726.76" y1="492.85" x2="894.82" y2="492.85"/><line class="cls-4" x1="93.85" y1="492.85" x2="261.91" y2="492.85"/><circle class="cls-4" cx="493.74" cy="492.85" r="311.34"/></svg>