<?xml version="1.0" encoding="utf-8"?>
<!-- Generator: Adobe Illustrator 16.0.0, SVG Export Plug-In . SVG Version: 6.00 Build 0)  -->
<!DOCTYPE svg PUBLIC "-//W3C//DTD SVG 1.1//EN" "http://www.w3.org/Graphics/SVG/1.1/DTD/svg11.dtd">
<svg version="1.1" id="Layer_1" xmlns="http://www.w3.org/2000/svg" xmlns:xlink="http://www.w3.org/1999/xlink" x="0px" y="0px"
	 width="145.44px" height="148.32px" viewBox="0 0 145.44 148.32" enable-background="new 0 0 145.44 148.32" xml:space="preserve">
<g>
	<path fill="#F9DC5C" d="M106.619,102.384c0,0.552-0.201,1.056-0.535,1.443c-0.068,0.08-5.623,5.635-5.701,5.703
		c-0.391,0.34-0.898,0.545-1.455,0.545c-1.221,0-2.211-0.989-2.211-2.211c0-0.533,0.188-1.021,0.502-1.403
		c0.064-0.077,5.613-5.63,5.686-5.698c0.395-0.365,0.923-0.59,1.504-0.59C105.629,100.173,106.619,101.163,106.619,102.384z"/>
	<path fill="#F9DC5C" d="M90.291,13.859C77.238,21.39,55.653,25.74,45.279,34.775c-10.374,9.036-18.292,21.88-15.504,39.052
		c4.192-5.996,11.421-11.673,19.833-17.409c0.2-9.124,0.584-19.002,0.59-19.139c0.044-1.109,0.985-1.975,2.085-1.929
		c1.108,0.044,1.971,0.978,1.928,2.086c-0.005,0.122-0.315,8.064-0.522,16.249c6.165-4.066,12.765-8.191,19.173-12.511
		c0.324-7.415,0.692-14.063,0.699-14.176c0.062-1.107,1.024-1.947,2.115-1.894c1.107,0.062,1.955,1.009,1.894,2.116
		c-0.005,0.096-0.278,5.022-0.56,11.097c13.22-9.269,24.934-19.517,29.127-31.988c0.64-2.636,0.383-2.893,0.037-3.269
		C105.137,1.932,100.08,8.212,90.291,13.859z"/>
	<path fill="#F9DC5C" d="M91.463,66.036c-17.36,0-25.301-8.181-25.727-8.635c-0.76-0.81-0.72-2.079,0.088-2.839
		c0.808-0.757,2.074-0.719,2.833,0.084c0.464,0.482,10.138,10.189,32.28,6.559c12.602-18.829,5.199-45.84,5.199-45.84
		C90.859,43.477,42.602,57.867,27.542,87.986l7.583,5.743c0,0-1.004-6.525,3.012-11.211c4.017-4.686,37.314,4.351,57.729-13.888
		c0.784-0.701,1.511-1.434,2.21-2.179C96.007,66.658,93.314,66.036,91.463,66.036z"/>
	<g>
		<path fill="#F9DC5C" d="M109.208,67.381l-0.112,0.167l-0.117,0.161c-1.229,1.679-3.638,4.61-3.908,4.938l-0.09,0.108
			c-4.84,20.781-23.5,36.315-45.732,36.315c-25.898,0-46.968-21.07-46.968-46.967c0-25.899,21.069-46.968,46.968-46.968
			c1.986,0,3.939,0.139,5.862,0.379c1-0.377,2.002-0.752,3-1.124c4.198-1.567,8.25-3.08,11.862-4.658
			c-6.42-2.55-13.407-3.967-20.724-3.967C28.184,5.767,2.91,31.039,2.91,62.104c0,31.063,25.274,56.337,56.338,56.337
			s56.336-25.273,56.336-56.337c0-2.415-0.17-4.789-0.465-7.124C113.756,59.229,111.851,63.433,109.208,67.381z"/>
	</g>
	<path fill="#F9DC5C" d="M144.68,139.173c0,4.997-4.051,9.049-9.049,9.049c-2.041,0-3.926-0.678-5.439-1.818
		c-0.257-0.193-24.143-24.04-24.378-24.26c-1.766-1.65-2.87-4.002-2.87-6.609c0-4.998,4.051-9.05,9.049-9.05
		c2.686,0,5.096,1.169,6.753,3.025c0.288,0.322,24.192,24.304,24.431,24.663C144.127,135.606,144.68,137.325,144.68,139.173z"/>
</g>
<g>
	<path fill="#434C75" d="M103.69,99.455c0,0.552-0.201,1.056-0.535,1.443c-0.068,0.08-5.623,5.635-5.701,5.703
		c-0.391,0.34-0.898,0.545-1.455,0.545c-1.221,0-2.211-0.989-2.211-2.211c0-0.533,0.188-1.021,0.502-1.403
		c0.064-0.077,5.613-5.63,5.686-5.698c0.395-0.365,0.923-0.59,1.504-0.59C102.7,97.244,103.69,98.234,103.69,99.455z"/>
	<path fill="#434C75" d="M87.362,10.931C74.31,18.461,52.724,22.812,42.35,31.847c-10.374,9.036-18.292,21.88-15.504,39.052
		c4.192-5.996,11.421-11.673,19.833-17.409c0.2-9.124,0.584-19.002,0.59-19.139c0.044-1.109,0.985-1.975,2.085-1.929
		c1.108,0.044,1.971,0.978,1.928,2.086c-0.005,0.122-0.315,8.064-0.522,16.249c6.165-4.066,12.765-8.191,19.173-12.511
		c0.324-7.415,0.692-14.063,0.699-14.176c0.061-1.107,1.024-1.947,2.115-1.894c1.107,0.062,1.955,1.009,1.894,2.116
		c-0.005,0.096-0.278,5.022-0.56,11.097c13.22-9.269,24.934-19.517,29.127-31.988c0.64-2.636,0.383-2.893,0.037-3.269
		C102.208-0.997,97.151,5.283,87.362,10.931z"/>
	<path fill="#434C75" d="M88.534,63.107c-17.36,0-25.301-8.181-25.727-8.635c-0.76-0.81-0.72-2.079,0.088-2.839
		c0.808-0.757,2.074-0.719,2.833,0.084c0.464,0.482,10.138,10.189,32.28,6.559c12.602-18.829,5.199-45.84,5.199-45.84
		C87.931,40.548,39.673,54.938,24.614,85.058l7.583,5.743c0,0-1.004-6.525,3.012-11.211c4.017-4.686,37.314,4.351,57.729-13.888
		c0.784-0.701,1.511-1.434,2.21-2.179C93.078,63.729,90.386,63.107,88.534,63.107z"/>
	<g>
		<path fill="#434C75" d="M106.279,64.452l-0.112,0.167l-0.117,0.161c-1.229,1.679-3.638,4.61-3.908,4.938l-0.09,0.108
			c-4.84,20.781-23.5,36.315-45.732,36.315c-25.898,0-46.968-21.07-46.968-46.967c0-25.899,21.069-46.968,46.968-46.968
			c1.986,0,3.939,0.139,5.862,0.379c1-0.377,2.002-0.752,3-1.124c4.198-1.567,8.25-3.08,11.862-4.658
			c-6.419-2.55-13.407-3.967-20.724-3.967c-31.064,0-56.338,25.272-56.338,56.338c0,31.063,25.274,56.337,56.338,56.337
			s56.336-25.273,56.336-56.337c0-2.415-0.17-4.789-0.465-7.124C110.827,56.3,108.922,60.504,106.279,64.452z"/>
	</g>
	<path fill="#434C75" d="M141.751,136.244c0,4.997-4.051,9.049-9.049,9.049c-2.041,0-3.926-0.678-5.439-1.818
		c-0.257-0.193-24.143-24.04-24.378-24.26c-1.766-1.65-2.87-4.002-2.87-6.609c0-4.998,4.051-9.05,9.049-9.05
		c2.686,0,5.096,1.169,6.753,3.025c0.288,0.322,24.192,24.304,24.431,24.663C141.198,132.678,141.751,134.396,141.751,136.244z"/>
</g>
</svg>
