<svg width="155" height="78" viewBox="0 0 155 78" fill="none" xmlns="http://www.w3.org/2000/svg">
<path d="M154.954 20.7845C154.861 20.7845 142.172 26.8464 115.777 26.8464C86.3908 26.8464 66.5308 16.8702 39.0156 16.8702C15.9919 16.8702 5.17282 22.2278 0 24.4447V58.1951C0.00903402 58.8411 0.145228 59.4789 0.400804 60.0722C0.65638 60.6656 1.02633 61.2027 1.48953 61.6531C1.95273 62.1034 2.5001 62.4581 3.10039 62.6968C3.70068 62.9356 4.34212 63.0538 4.98808 63.0446H149.977C150.623 63.0538 151.265 62.9356 151.865 62.6968C152.465 62.4581 153.013 62.1034 153.476 61.6531C153.939 61.2027 154.309 60.6656 154.565 60.0722C154.82 59.4789 154.956 58.8411 154.965 58.1951L154.954 20.7845Z" fill="#231F20"/>
<path d="M0 5.69242C0 5.69242 13.9712 0 38.7731 0C70.4913 0 89.67 9.84915 114.876 9.84915C134.505 9.84915 145.913 7.10109 155 1.27011V21.7536C155 21.7536 142.299 27.827 115.811 27.827C86.4254 27.827 66.577 17.8509 39.0502 17.8509C16.0265 17.8509 5.13818 23.1738 0 25.4023V5.69242Z" fill="#0095C3"/>
<path d="M10.8882 51.3828C14.1097 53.796 15.5068 54.3848 18.0124 54.3848C20.7951 54.3848 22.631 52.93 22.631 50.7592C22.6466 50.156 22.4855 49.5613 22.1675 49.0485C21.8495 48.5356 21.3885 48.1269 20.8413 47.8726C19.5027 47.1907 18.1264 46.5855 16.7192 46.0598C11.8581 44.1662 9.86055 41.9146 9.86055 38.4738C9.86055 33.6589 14.075 30.4605 20.414 30.4605C23.0009 30.4263 25.5647 30.9501 27.9308 31.9962L26.8454 35.8643C24.3167 34.1669 22.4 33.4857 20.4487 33.4857C18.2317 33.4857 16.6268 34.8251 16.6268 36.6033C16.6268 38.3814 17.4119 39.0165 22.4924 40.9447C27.5729 42.873 29.4203 45.0899 29.4203 48.8425C29.427 50.2627 29.0762 51.6618 28.4002 52.9108C27.7243 54.1598 26.7449 55.2187 25.5522 55.9898C23.3956 57.1981 20.9436 57.7781 18.4742 57.664C15.4069 57.7003 12.3777 56.9827 9.65271 55.5741L10.8882 51.3828Z" fill="white"/>
<path d="M38.2076 55.932C38.189 56.3774 38.2637 56.8219 38.427 57.2367H31.2681C31.4275 56.821 31.4983 56.3766 31.476 55.932V31.8691C31.4973 31.4283 31.4265 30.9878 31.2681 30.5759H38.427C38.2567 30.9848 38.1817 31.427 38.2076 31.8691V44.755L44.4658 37.1343C44.7769 36.8036 45.0132 36.4098 45.1586 35.9797H50.5508C50.4286 36.094 50.2973 36.1983 50.1582 36.2914C49.8611 36.5732 49.587 36.8782 49.3384 37.2036L43.646 43.4156L51.9594 56.0474C52.2315 56.4968 52.5884 56.8889 53.0102 57.2021H44.7775C44.6234 56.7564 44.4181 56.3302 44.1656 55.932L38.2076 47.0527V55.932Z" fill="white"/>
<path d="M49.1994 37.2152C49.0276 36.7765 48.7943 36.3644 48.5066 35.9913H56.4621C56.4921 36.4133 56.5936 36.8272 56.7623 37.2152L61.1038 48.8656L66.1843 37.2152C66.3633 36.8279 66.4802 36.4149 66.5307 35.9913H70.4911C70.1964 36.368 69.9482 36.7789 69.7521 37.2152L58.5405 61.9709C58.3344 62.3508 58.2013 62.7659 58.1479 63.1948H54.072C54.3976 62.8244 54.6732 62.4129 54.8918 61.9709L57.3743 57.2368L49.1994 37.2152Z" fill="white"/>
<path d="M76.0451 43.762C76.3107 40.0902 77.6963 38.0811 79.9594 38.0811C80.7518 38.1053 81.5119 38.4004 82.1129 38.9174C82.7139 39.4343 83.1194 40.1417 83.2617 40.9216C83.4944 41.8512 83.6222 42.8039 83.6427 43.762H76.0451ZM88.9079 52.2602C87.1467 53.9576 84.7956 54.9055 82.3495 54.9044C81.1592 54.994 79.9708 54.708 78.9517 54.0865C77.9326 53.4651 77.134 52.5396 76.6687 51.4404C76.0658 49.8826 75.8135 48.2111 75.9297 46.5447H90.8131C90.8877 44.5297 90.5171 42.523 89.7277 40.6676C88.0766 37.1459 85.0399 35.4485 80.3058 35.4485C73.2278 35.4485 68.921 39.7554 68.921 46.868C68.921 53.7959 73.3548 57.6871 81.2641 57.6871C84.1787 57.7541 87.0663 57.1164 89.6815 55.8281L88.9079 52.2602Z" fill="white"/>
<path d="M109.149 30.8877V34.3517C108.594 34.2164 108.024 34.1505 107.452 34.1554H101.76V55.932C101.735 56.3779 101.81 56.8236 101.979 57.2368H94.2889C94.4582 56.8236 94.5331 56.3779 94.5083 55.932V34.1323H88.9083C88.2831 34.1262 87.6594 34.1921 87.0493 34.3286V30.8646L109.149 30.8877Z" fill="white"/>
<path d="M112.001 43.762C112.266 40.0902 113.652 38.0811 115.915 38.0811C116.705 38.1079 117.463 38.4042 118.061 38.9209C118.66 39.4376 119.064 40.1436 119.206 40.9216C119.449 41.8494 119.581 42.803 119.598 43.762H112.001ZM124.898 52.2602C123.137 53.9576 120.786 54.9055 118.34 54.9044C117.149 54.9861 115.963 54.6969 114.943 54.0766C113.924 53.4562 113.122 52.5353 112.647 51.4404C112.044 49.8826 111.792 48.2111 111.908 46.5447H126.78C126.855 44.5297 126.484 42.523 125.695 40.6676C124.044 37.1459 121.007 35.4485 116.273 35.4485C109.183 35.4485 104.888 39.7554 104.888 46.868C104.888 53.7959 109.322 57.6871 117.22 57.6871C120.138 57.7551 123.03 57.1174 125.649 55.8281L124.898 52.2602Z" fill="white"/>
<path d="M146.202 56.4053C144.096 57.2235 141.856 57.6387 139.597 57.6293C132.519 57.6293 128.166 53.4841 128.166 46.6832C128.166 39.8823 132.866 35.4369 140.244 35.4369C142.264 35.4392 144.272 35.7428 146.202 36.3375V40.2518C143.892 38.6699 142.98 38.2774 141.156 38.2774C137.426 38.2774 135.29 41.2333 135.29 46.3599C135.29 51.4865 137.334 54.5348 140.983 54.5348C142.89 54.4995 144.73 53.8199 146.202 52.6065V56.4053Z" fill="white"/>
<path d="M149.804 30.7723C150.372 30.7677 150.928 30.932 151.402 31.2444C151.877 31.5567 152.247 32.003 152.467 32.5265C152.687 33.05 152.746 33.6271 152.638 34.1844C152.529 34.7417 152.257 35.2541 151.856 35.6564C151.455 36.0587 150.944 36.3328 150.387 36.4439C149.83 36.555 149.253 36.498 148.729 36.2802C148.204 36.0623 147.757 35.6936 147.442 35.2206C147.128 34.7477 146.961 34.1921 146.964 33.6242C146.959 33.2494 147.029 32.8774 147.17 32.5301C147.311 32.1827 147.52 31.867 147.785 31.6014C148.049 31.3358 148.364 31.1256 148.711 30.9833C149.058 30.8409 149.429 30.7692 149.804 30.7723ZM149.804 31.211C149.321 31.188 148.842 31.3101 148.428 31.5616C148.015 31.8132 147.686 32.1826 147.485 32.6225C147.283 33.0623 147.217 33.5525 147.297 34.0298C147.376 34.5072 147.596 34.9499 147.929 35.3011C148.262 35.6523 148.692 35.8959 149.165 36.0005C149.637 36.1051 150.13 36.0659 150.58 35.8881C151.03 35.7102 151.416 35.4018 151.69 35.0025C151.963 34.6032 152.111 34.1312 152.113 33.6473C152.131 33.3336 152.084 33.0195 151.975 32.7245C151.867 32.4295 151.7 32.1597 151.484 31.9317C151.267 31.7036 151.007 31.522 150.718 31.3981C150.429 31.2742 150.118 31.2105 149.804 31.211ZM149.273 35.2985H148.765V32.1001C149.063 32.0552 149.364 32.0321 149.666 32.0308C150.014 32.0077 150.36 32.0924 150.659 32.2733C150.756 32.3515 150.834 32.4522 150.884 32.5668C150.934 32.6815 150.956 32.8066 150.947 32.9314C150.946 33.112 150.884 33.2868 150.771 33.4274C150.658 33.5679 150.5 33.6658 150.324 33.7051C150.601 33.7628 150.797 34.0168 150.855 34.4787C150.887 34.7525 150.957 35.0205 151.063 35.2754H150.532C150.411 35.0169 150.337 34.7395 150.312 34.4556C150.308 34.3728 150.287 34.2917 150.25 34.2177C150.212 34.1437 150.16 34.0784 150.096 34.026C150.031 33.9737 149.957 33.9356 149.877 33.9141C149.796 33.8926 149.713 33.8883 149.631 33.9014H149.273V35.2985ZM149.273 33.5319H149.642C150.058 33.5319 150.416 33.3818 150.416 32.9776C150.416 32.5735 150.208 32.4234 149.642 32.4234H149.273V33.5319Z" fill="white"/>
<path d="M12.2741 75.7112H11.2926L10.2881 71.5891C10.2881 71.5314 10.2881 71.4621 10.2881 71.3813V71.1388C10.2881 71.0464 10.2881 70.9772 10.2881 70.8963C10.2916 70.8425 10.2916 70.7885 10.2881 70.7347C10.2957 70.7883 10.2957 70.8427 10.2881 70.8963C10.2925 70.9771 10.2925 71.058 10.2881 71.1388V71.3813C10.2881 71.4621 10.2881 71.5314 10.2881 71.5891L9.23734 75.7689H7.9095L6.58165 69.2798H7.5631L8.33672 73.3557V73.5405C8.34214 73.6173 8.34214 73.6945 8.33672 73.7714C8.3422 73.8521 8.3422 73.9331 8.33672 74.0139C8.34173 74.0792 8.34173 74.1448 8.33672 74.2102C8.33672 74.2102 8.33672 74.0947 8.33672 74.0139C8.33672 73.933 8.33672 73.8638 8.33672 73.7829V73.552C8.33672 73.4827 8.33672 73.4135 8.33672 73.3673L9.6992 69.2798H10.5305L11.5466 73.425C11.5799 73.5428 11.6069 73.6623 11.6275 73.7829C11.6275 73.9215 11.6852 74.0601 11.7083 74.1755C11.7083 74.0447 11.7314 73.9061 11.7776 73.7599V73.4135L12.7013 69.2798H13.6481L12.2741 75.7112Z" fill="#231F20"/>
<path d="M17.9084 75.7112V72.9746C17.9487 72.6075 17.8544 72.2382 17.6429 71.9355C17.5506 71.8364 17.4375 71.7591 17.3117 71.7091C17.1859 71.6592 17.0505 71.6379 16.9154 71.6468C16.7755 71.6386 16.6356 71.6636 16.5072 71.7198C16.3788 71.776 16.2654 71.8618 16.1765 71.9701C15.994 72.2381 15.9048 72.5586 15.9224 72.8823V75.7112H15.0103V69.476L15.9686 68.9796V71.2888C16.1041 71.1088 16.2828 70.9658 16.4882 70.8732C16.7082 70.7693 16.9493 70.7179 17.1926 70.7231C17.4337 70.7071 17.6753 70.7479 17.8979 70.8422C18.1204 70.9364 18.3178 71.0815 18.4742 71.2658C18.8016 71.7427 18.9564 72.317 18.913 72.8938V75.6765L17.9084 75.7112Z" fill="#231F20"/>
<path d="M24.4557 73.4366C24.4557 73.5058 24.4557 73.5751 24.4557 73.6213H21.2227C21.2479 73.8268 21.2983 74.0285 21.3728 74.2217C21.446 74.3721 21.5392 74.5119 21.6499 74.6374C21.7556 74.7393 21.8814 74.818 22.0194 74.8683C22.1549 74.9238 22.3002 74.9513 22.4466 74.9491C22.6365 74.9525 22.8251 74.9172 23.0008 74.8452C23.1771 74.7737 23.3439 74.6806 23.4973 74.5681L24.0631 75.1685C23.8578 75.3717 23.6145 75.5325 23.3472 75.6419C23.0429 75.7642 22.7168 75.8231 22.3889 75.8151C22.1104 75.8139 21.8351 75.7547 21.5807 75.6414C21.3263 75.5281 21.0982 75.3631 20.9109 75.157C20.7158 74.9195 20.5635 74.6499 20.4606 74.3603C20.3436 74.0147 20.2889 73.6511 20.299 73.2865C20.2911 72.919 20.3418 72.5526 20.4491 72.2011C20.5435 71.9101 20.6924 71.6397 20.8878 71.4044C21.0723 71.1951 21.3011 71.0294 21.5575 70.9194C21.8331 70.8105 22.1271 70.7556 22.4235 70.7578C22.7347 70.7546 23.0425 70.8217 23.3241 70.9541C23.5721 71.0775 23.7891 71.255 23.9592 71.4737C24.127 71.7135 24.2557 71.9785 24.3402 72.2588C24.4201 72.5601 24.4589 72.8708 24.4557 73.1825V73.4366ZM23.4165 72.3627C23.3755 72.2222 23.3046 72.0923 23.2087 71.9817C23.1174 71.8654 22.9983 71.7741 22.8623 71.7161C22.703 71.6434 22.5293 71.6079 22.3542 71.6122C22.2112 71.6065 22.0687 71.6326 21.937 71.6885C21.8052 71.7444 21.6875 71.8287 21.5922 71.9355C21.387 72.1931 21.2661 72.5075 21.2458 72.8361H23.5551C23.5273 72.6735 23.4808 72.5147 23.4165 72.3627Z" fill="#231F20"/>
<path d="M28.866 75.7111V72.9746C28.9012 72.6078 28.8073 72.2403 28.6004 71.9354C28.5082 71.8363 28.3951 71.759 28.2693 71.7091C28.1434 71.6592 28.0081 71.6379 27.873 71.6467C27.733 71.6376 27.5928 71.6622 27.4642 71.7185C27.3356 71.7747 27.2224 71.861 27.134 71.97C26.9466 72.2357 26.8569 72.558 26.88 72.8822V75.7111H25.9101V70.8616H26.88V71.3234C27.0084 71.1412 27.184 70.9975 27.3881 70.9078C27.6084 70.805 27.8493 70.7537 28.0924 70.7577C28.3351 70.7435 28.5778 70.785 28.8019 70.8791C29.0261 70.9731 29.2257 71.1172 29.3856 71.3003C29.708 71.7795 29.8623 72.3521 29.8244 72.9284V75.7111H28.866Z" fill="#231F20"/>
<path d="M38.6227 75.2031C38.161 75.5669 37.5814 75.7478 36.9947 75.7112H34.4313V69.2798H37.0755C37.5629 69.2524 38.0434 69.4043 38.4264 69.707C38.5989 69.8637 38.7341 70.057 38.822 70.2728C38.91 70.4887 38.9484 70.7214 38.9345 70.954C38.9462 71.2413 38.8653 71.5246 38.7035 71.7623C38.5463 71.9663 38.345 72.132 38.1147 72.2472C38.2541 72.2831 38.3867 72.3416 38.5072 72.4204C38.6416 72.4964 38.7594 72.5984 38.8536 72.7207C38.9631 72.8511 39.0491 72.9995 39.1077 73.1594C39.171 73.3532 39.2022 73.556 39.2 73.7598C39.2177 74.0283 39.175 74.2972 39.0751 74.547C38.9752 74.7967 38.8206 75.0209 38.6227 75.2031ZM37.7683 70.4345C37.6776 70.3458 37.5685 70.2781 37.4488 70.2362C37.3291 70.1943 37.2017 70.1792 37.0755 70.192H35.3435V71.8547H37.0755C37.2171 71.8573 37.358 71.8338 37.4912 71.7854C37.595 71.7431 37.6893 71.6803 37.7683 71.6006C37.8973 71.4397 37.9703 71.2411 37.9761 71.0349C37.9831 70.816 37.9091 70.6022 37.7683 70.4345ZM37.9415 73.0209C37.8271 72.9193 37.6937 72.8415 37.549 72.792C37.4043 72.7424 37.2512 72.7221 37.0986 72.7322H35.3435V74.8221H37.0639C37.2286 74.8405 37.3953 74.8231 37.5527 74.7713C37.7101 74.7195 37.8545 74.6345 37.9761 74.5219C38.1561 74.3051 38.2505 74.0299 38.2417 73.7483C38.2484 73.6038 38.2252 73.4595 38.1735 73.3244C38.1219 73.1893 38.0429 73.0663 37.9415 72.9631V73.0209Z" fill="#231F20"/>
<path d="M43.6344 75.7112V75.2378C43.5105 75.4269 43.3339 75.5754 43.1264 75.665C42.9038 75.761 42.6644 75.8121 42.422 75.8151C42.178 75.8315 41.9336 75.7898 41.7088 75.6935C41.484 75.5971 41.2852 75.4489 41.1288 75.2609C40.8049 74.7868 40.6503 74.2172 40.6901 73.6444V70.8617H41.6484V73.5982C41.615 73.9612 41.7089 74.3245 41.914 74.6258C42.0057 74.7263 42.1184 74.8054 42.2441 74.8573C42.3699 74.9092 42.5055 74.9326 42.6414 74.926C42.7811 74.9324 42.9204 74.9066 43.0486 74.8505C43.1767 74.7944 43.2902 74.7097 43.3804 74.6027C43.5661 74.3363 43.6556 74.0146 43.6344 73.6906V70.8617H44.5928V75.7112H43.6344Z" fill="#231F20"/>
<path d="M47.2483 70.0535C47.1288 70.1638 46.9722 70.2251 46.8095 70.2251C46.6469 70.2251 46.4902 70.1638 46.3708 70.0535C46.2553 69.941 46.1889 69.7874 46.186 69.6263C46.1838 69.5452 46.198 69.4646 46.2277 69.3892C46.2575 69.3138 46.3022 69.2452 46.3592 69.1875C46.4163 69.1288 46.4845 69.0822 46.5598 69.0504C46.6352 69.0185 46.7162 69.0021 46.798 69.0021C46.8798 69.0021 46.9608 69.0185 47.0361 69.0504C47.1115 69.0822 47.1797 69.1288 47.2368 69.1875C47.2937 69.2452 47.3385 69.3138 47.3682 69.3892C47.398 69.4646 47.4122 69.5452 47.41 69.6263C47.4132 69.7842 47.3553 69.9373 47.2483 70.0535ZM46.3361 75.7113V70.8617H47.3407V75.7113H46.3361Z" fill="#231F20"/>
<path d="M49.0726 75.7112V69.476L50.0425 68.9796V75.7112H49.0726Z" fill="#231F20"/>
<path d="M54.6953 75.7112V75.2378C54.521 75.3967 54.327 75.5325 54.118 75.6419C53.907 75.7613 53.6676 75.8211 53.4252 75.8151C53.1754 75.8121 52.9284 75.7611 52.6978 75.665C52.4646 75.5597 52.259 75.4015 52.0974 75.2031C51.9168 74.9608 51.7836 74.6866 51.7048 74.3949C51.6088 74.0176 51.5622 73.6295 51.5662 73.2402C51.5584 72.8728 51.609 72.5064 51.7163 72.1549C51.8068 71.875 51.952 71.616 52.1436 71.3928C52.3023 71.1943 52.5089 71.0393 52.744 70.9425C52.9729 70.8408 53.221 70.7896 53.4714 70.7924C53.7118 70.7913 53.9491 70.8467 54.1642 70.954C54.36 71.0573 54.5391 71.1897 54.6953 71.3466V69.4992L55.6306 69.0142V75.7458L54.6953 75.7112ZM54.6953 72.2472C54.6353 72.1659 54.5655 72.0922 54.4875 72.0279C54.4071 71.9488 54.318 71.8791 54.2219 71.82C54.1199 71.7585 54.0115 71.7081 53.8986 71.6699C53.7923 71.6275 53.6782 71.6078 53.5638 71.6122C53.4112 71.6028 53.2588 71.633 53.1212 71.6997C52.9837 71.7665 52.8657 71.8676 52.7786 71.9932C52.5733 72.3416 52.4805 72.7448 52.513 73.1479C52.4785 73.6077 52.5746 74.068 52.7902 74.4757C52.8776 74.6088 52.998 74.717 53.1396 74.7898C53.2812 74.8627 53.4393 74.8976 53.5984 74.8914C53.8208 74.8874 54.0373 74.8192 54.2219 74.6951C54.403 74.5808 54.5631 74.4363 54.6953 74.2679V72.2472Z" fill="#231F20"/>
<path d="M58.2863 70.0534C58.2308 70.1101 58.1642 70.1547 58.0907 70.1845C58.0172 70.2143 57.9384 70.2286 57.8591 70.2266C57.6958 70.2286 57.5382 70.1664 57.4203 70.0534C57.3091 69.939 57.247 69.7857 57.2471 69.6262C57.2449 69.5452 57.2591 69.4645 57.2888 69.3891C57.3186 69.3137 57.3633 69.2451 57.4203 69.1874C57.4766 69.1278 57.5446 69.0806 57.6202 69.0487C57.6957 69.0169 57.7771 69.0012 57.8591 69.0027C57.9395 68.9999 58.0196 69.015 58.0935 69.0469C58.1674 69.0789 58.2332 69.1269 58.2863 69.1874C58.3471 69.2427 58.3952 69.3107 58.4271 69.3864C58.459 69.4622 58.474 69.544 58.471 69.6262C58.4716 69.7063 58.4554 69.7857 58.4236 69.8592C58.3918 69.9328 58.3451 69.9989 58.2863 70.0534ZM57.3857 75.7112V70.8617H58.344V75.7112H57.3857Z" fill="#231F20"/>
<path d="M63.0205 75.7111V72.9746C63.0581 72.6093 62.9684 72.2422 62.7665 71.9354C62.6725 71.8354 62.5574 71.7576 62.4296 71.7077C62.3018 71.6578 62.1644 71.6369 62.0275 71.6467C61.8893 71.6385 61.751 71.6636 61.6245 71.7199C61.4979 71.7761 61.3867 71.8619 61.3001 71.97C61.1086 72.2342 61.0148 72.5566 61.0345 72.8822V75.7111H60.0415V70.8616H60.9999V71.3234C61.1354 71.1434 61.3141 71.0004 61.5195 70.9078C61.7399 70.805 61.9807 70.7537 62.2238 70.7577C62.4665 70.7435 62.7092 70.785 62.9333 70.8791C63.1575 70.9731 63.3571 71.1172 63.517 71.3003C63.8394 71.7795 63.9937 72.3521 63.9558 72.9284V75.7111H63.0205Z" fill="#231F20"/>
<path d="M69.3943 76.2077C69.3332 76.4796 69.2002 76.7302 69.0093 76.9333C68.8184 77.1363 68.5766 77.2845 68.309 77.3624C67.9524 77.466 67.5833 77.5204 67.212 77.524L66.8887 76.8081C67.1688 76.795 67.4471 76.7563 67.7201 76.6927C67.9079 76.6516 68.0826 76.5643 68.2281 76.4387C68.3558 76.3219 68.4445 76.1687 68.4822 75.9999C68.5325 75.7881 68.5558 75.5709 68.5514 75.3533V75.2725C68.3791 75.4285 68.1892 75.5642 67.9857 75.6766C67.7736 75.7934 67.5349 75.853 67.2929 75.8498C67.043 75.8468 66.7961 75.7958 66.5654 75.6997C66.3338 75.5971 66.1314 75.4383 65.9766 75.2378C65.7922 74.9963 65.6551 74.722 65.5724 74.4296C65.472 74.0529 65.4215 73.6647 65.4223 73.2749C65.4182 72.9068 65.4728 72.5405 65.584 72.1895C65.6744 71.9097 65.8197 71.6507 66.0112 71.4275C66.1743 71.2285 66.3847 71.0736 66.6232 70.9772C66.8477 70.8746 67.0922 70.8233 67.3391 70.8271C67.5792 70.8284 67.8159 70.8837 68.0318 70.9887C68.2262 71.089 68.4019 71.2218 68.5514 71.3813V70.931H69.4982V75.3186C69.4982 75.618 69.4634 75.9164 69.3943 76.2077ZM68.563 72.2819C68.5106 72.1981 68.4442 72.1239 68.3667 72.0625C68.2863 71.9835 68.1972 71.9138 68.1011 71.8547C67.9991 71.7931 67.8907 71.7428 67.7778 71.7046C67.6672 71.6631 67.5495 71.6435 67.4314 71.6469C67.2807 71.6395 67.1307 71.6706 66.9953 71.7373C66.86 71.804 66.7438 71.904 66.6578 72.0279C66.4525 72.3762 66.3597 72.7795 66.3922 73.1825C66.3577 73.6424 66.4537 74.1027 66.6694 74.5104C66.7551 74.6451 66.8752 74.7546 67.0172 74.8277C67.1592 74.9007 67.3181 74.9347 67.4776 74.9261C67.7 74.9221 67.9165 74.8539 68.1011 74.7298C68.2812 74.6185 68.4381 74.4734 68.563 74.3026V72.2819Z" fill="#231F20"/>
<path d="M74.44 75.0529C74.3432 75.23 74.2044 75.3806 74.0359 75.4917C73.8622 75.6113 73.6656 75.6938 73.4586 75.7341C73.2311 75.7851 72.9989 75.8122 72.7658 75.815C72.4269 75.8086 72.0913 75.7462 71.7728 75.6302C71.469 75.5244 71.1814 75.3767 70.9184 75.1915L71.3456 74.4756C71.5642 74.6243 71.8009 74.7446 72.0499 74.8335C72.281 74.9095 72.5226 74.9484 72.7658 74.949C73.3547 74.949 73.6433 74.7758 73.6433 74.4179C73.6422 74.3218 73.6133 74.2281 73.56 74.1482C73.5067 74.0683 73.4314 74.0055 73.3431 73.9675C73.0763 73.8305 72.8027 73.7072 72.5233 73.5981C72.2943 73.5206 72.0738 73.42 71.8652 73.2978C71.6987 73.215 71.5466 73.1058 71.4148 72.9745C71.305 72.864 71.222 72.7297 71.1724 72.582C71.1235 72.4171 71.1002 72.2458 71.1031 72.0739C71.0976 71.879 71.1371 71.6854 71.2186 71.5081C71.2943 71.3408 71.414 71.1972 71.565 71.0925C71.7194 70.9739 71.8961 70.8875 72.0845 70.8384C72.3031 70.7812 72.5284 70.754 72.7542 70.7576C73.0571 70.7547 73.3582 70.8055 73.6433 70.9077C73.9139 70.9898 74.1679 71.1188 74.3938 71.2888L73.9782 72.0277C73.7977 71.8869 73.5947 71.7776 73.3778 71.7044C73.1738 71.6314 72.9593 71.5924 72.7427 71.589C72.5655 71.5744 72.3881 71.6147 72.2347 71.7044C72.1866 71.7433 72.1481 71.7926 72.122 71.8486C72.096 71.9047 72.0832 71.966 72.0845 72.0277C72.0736 72.085 72.0736 72.1437 72.0845 72.2009C72.1196 72.2634 72.1667 72.3184 72.2231 72.3626C72.3114 72.4265 72.404 72.4844 72.5002 72.5358L72.939 72.7321C73.1827 72.8197 73.4216 72.9199 73.6549 73.0323C73.841 73.1112 74.0126 73.2204 74.1629 73.3556C74.2971 73.4687 74.4037 73.6108 74.4747 73.7713C74.5488 73.9585 74.5841 74.1588 74.5786 74.3601C74.597 74.5994 74.5491 74.8391 74.44 75.0529Z" fill="#231F20"/>
<path d="M81.4719 70.192V75.7112H80.5136V70.192H78.6315V69.2798H83.354V70.2266L81.4719 70.192Z" fill="#231F20"/>
<path d="M86.4254 75.7112V75.2262C86.2546 75.3977 86.0553 75.5383 85.8366 75.6419C85.6075 75.7575 85.3542 75.8168 85.0976 75.8151C84.8941 75.8126 84.692 75.7815 84.4972 75.7227C84.3004 75.6656 84.1162 75.5715 83.9545 75.4456C83.7903 75.3049 83.6567 75.132 83.5619 74.9376C83.4548 74.6982 83.4035 74.4376 83.4118 74.1755C83.403 73.9319 83.4546 73.69 83.5619 73.4712C83.6537 73.2781 83.7927 73.1113 83.966 72.9862C84.1495 72.8515 84.3573 72.7534 84.578 72.6975C84.8273 72.6356 85.0832 72.6046 85.3401 72.6052C85.7109 72.5892 86.0808 72.6522 86.4254 72.7899V72.432C86.4333 72.3183 86.4156 72.2044 86.3737 72.0985C86.3317 71.9926 86.2666 71.8974 86.183 71.82C85.9935 71.6696 85.7546 71.5955 85.5133 71.6122C85.2843 71.6093 85.0557 71.6326 84.832 71.6815C84.6261 71.7311 84.4279 71.8088 84.2432 71.9124L83.8737 71.1965C84.1049 71.0491 84.3583 70.9399 84.6242 70.8732C84.9209 70.79 85.2283 70.7511 85.5364 70.7577C86.0085 70.7371 86.4734 70.8798 86.8527 71.1619C87.0275 71.3117 87.1646 71.5005 87.2528 71.7132C87.3411 71.9258 87.3781 72.1562 87.3607 72.3858V75.7112H86.4254ZM86.4254 73.6444C86.2802 73.5681 86.1246 73.5137 85.9636 73.4827C85.7485 73.4618 85.532 73.4618 85.317 73.4827C85.0594 73.465 84.8033 73.5341 84.5896 73.679C84.5009 73.7355 84.4286 73.8143 84.38 73.9075C84.3314 74.0007 84.3081 74.1051 84.3124 74.2101C84.3103 74.3169 84.3296 74.4231 84.3693 74.5222C84.4089 74.6214 84.4681 74.7116 84.5434 74.7875C84.7413 74.9483 84.9935 75.0269 85.2477 75.0068C85.497 75.0147 85.7427 74.9462 85.952 74.8105C86.1344 74.7027 86.295 74.5618 86.4254 74.3949V73.6444Z" fill="#231F20"/>
<path d="M89.0697 75.7112V69.476L90.0281 68.9796V75.7112H89.0697Z" fill="#231F20"/>
<path d="M94.5312 75.7112L93.4573 73.2979L92.7184 74.2794V75.7112H91.76V69.476L92.7184 68.9796V73.067C92.7184 72.9631 92.8685 72.8361 92.9724 72.686L93.2495 72.2703L94.254 70.8616H95.3394L94.1039 72.4897L95.5703 75.7112H94.5312Z" fill="#231F20"/>
<path d="M97.4062 76.8773H96.7481L96.8866 74.4295H98.0413L97.4062 76.8773Z" fill="#231F20"/>
<path d="M107.868 75.7112H106.886L105.882 71.5891C105.874 71.5201 105.874 71.4503 105.882 71.3813C105.876 71.3005 105.876 71.2195 105.882 71.1388C105.882 71.0464 105.882 70.9772 105.882 70.8963C105.878 70.8425 105.878 70.7885 105.882 70.7347C105.878 70.7885 105.878 70.8425 105.882 70.8963C105.882 70.9772 105.882 71.0464 105.824 71.1388C105.766 71.2312 105.824 71.3004 105.824 71.3813C105.824 71.4621 105.824 71.5314 105.824 71.5891L104.762 75.7689H103.803L102.175 69.2798H103.157L103.919 73.3211C103.909 73.3823 103.909 73.4446 103.919 73.5058C103.913 73.5827 103.913 73.6599 103.919 73.7368V73.9792V74.1755C103.914 74.1102 103.914 74.0446 103.919 73.9792C103.919 73.91 103.919 73.8291 103.919 73.7483C103.919 73.6675 103.919 73.5982 103.919 73.5174C103.919 73.4365 103.919 73.3788 103.919 73.3326L105.281 69.2798H106.113L107.175 73.4596L107.256 73.8176C107.256 73.9561 107.256 74.0947 107.325 74.2102C107.325 74.0831 107.325 73.9446 107.406 73.7945C107.487 73.6444 107.406 73.5289 107.406 73.4481L108.237 69.2798H109.184L107.868 75.7112Z" fill="#231F20"/>
<path d="M114.149 73.4364C114.149 73.5057 114.149 73.575 114.149 73.6212H110.927C110.947 73.8277 110.997 74.03 111.077 74.2216C111.142 74.3767 111.236 74.5178 111.354 74.6372C111.46 74.7392 111.586 74.8179 111.724 74.8682C111.859 74.9237 112.005 74.9512 112.151 74.949C112.341 74.9514 112.529 74.9161 112.705 74.8451C112.881 74.7735 113.048 74.6804 113.202 74.568L113.767 75.1684C113.557 75.3707 113.31 75.5314 113.04 75.6418C112.74 75.7654 112.417 75.8244 112.093 75.815C111.815 75.8137 111.54 75.7546 111.285 75.6413C111.031 75.528 110.803 75.363 110.615 75.1568C110.412 74.9251 110.259 74.6539 110.165 74.3601C110.044 74.0153 109.985 73.6517 109.992 73.2863C109.988 72.9182 110.042 72.5518 110.153 72.2009C110.248 71.91 110.397 71.6396 110.592 71.4042C110.777 71.1949 111.005 71.0293 111.262 70.9193C111.534 70.8118 111.824 70.7569 112.116 70.7576C112.428 70.7519 112.736 70.8192 113.017 70.9539C113.27 71.0741 113.492 71.2521 113.664 71.4735C113.832 71.7113 113.957 71.9771 114.033 72.2587C114.123 72.5582 114.166 72.8698 114.16 73.1824C114.162 73.2672 114.158 73.3521 114.149 73.4364ZM113.109 72.3626C113.068 72.2221 112.997 72.0921 112.901 71.9816C112.81 71.8653 112.691 71.7739 112.555 71.716C112.4 71.6426 112.23 71.607 112.059 71.6121C111.916 71.6064 111.773 71.6324 111.641 71.6883C111.51 71.7442 111.392 71.8286 111.297 71.9354C111.091 72.1929 110.97 72.5074 110.95 72.836H113.259C113.243 72.6748 113.208 72.516 113.156 72.3626H113.109Z" fill="#231F20"/>
<path d="M118.571 75.7112V69.2798H119.529V74.7875H122.751V75.7458L118.571 75.7112Z" fill="#231F20"/>
<path d="M125.176 70.0533C125.12 70.1094 125.053 70.1537 124.98 70.1835C124.906 70.2132 124.828 70.2279 124.748 70.2265C124.667 70.2288 124.587 70.2146 124.511 70.1848C124.436 70.155 124.367 70.1103 124.31 70.0533C124.195 69.9401 124.129 69.787 124.125 69.6261C124.125 69.5443 124.141 69.4634 124.173 69.388C124.205 69.3127 124.251 69.2444 124.31 69.1873C124.365 69.1265 124.433 69.0785 124.509 69.0466C124.584 69.0147 124.666 68.9997 124.748 69.0026C124.829 69.0013 124.908 69.0171 124.982 69.049C125.056 69.0808 125.122 69.128 125.176 69.1873C125.236 69.2427 125.284 69.3106 125.316 69.3863C125.348 69.4621 125.363 69.5439 125.36 69.6261C125.361 69.7062 125.345 69.7856 125.313 69.8592C125.281 69.9327 125.234 69.9988 125.176 70.0533ZM124.275 75.7111V70.8616H125.233V75.7111H124.275Z" fill="#231F20"/>
<path d="M130.198 75.0529C130.107 75.2307 129.972 75.3818 129.806 75.4917C129.631 75.6094 129.435 75.6917 129.228 75.7342C129.001 75.7852 128.769 75.8123 128.535 75.815C128.196 75.8097 127.861 75.7473 127.542 75.6303C127.235 75.524 126.944 75.3764 126.676 75.1915L127.115 74.4756C127.334 74.6243 127.571 74.7446 127.82 74.8335C128.047 74.9094 128.284 74.9484 128.524 74.949C129.113 74.949 129.413 74.7758 129.413 74.4179C129.409 74.3225 129.379 74.23 129.326 74.1505C129.273 74.0711 129.199 74.0078 129.113 73.9676C128.843 73.8287 128.565 73.7053 128.281 73.5981C128.054 73.5161 127.834 73.4157 127.623 73.2979C127.462 73.212 127.314 73.103 127.185 72.9746C127.075 72.864 126.992 72.7297 126.942 72.582C126.884 72.4192 126.856 72.2468 126.861 72.0739C126.859 71.8781 126.903 71.6844 126.988 71.5082C127.06 71.3416 127.176 71.1979 127.323 71.0925C127.482 70.9738 127.662 70.8875 127.854 70.8385C128.069 70.7811 128.29 70.7539 128.512 70.7576C128.819 70.7548 129.124 70.8056 129.413 70.9077C129.682 70.9948 129.935 71.1233 130.164 71.2888L129.748 72.0278C129.566 71.8892 129.363 71.7801 129.147 71.7044C128.934 71.6384 128.712 71.6072 128.489 71.6121C128.312 71.596 128.134 71.6364 127.981 71.7275C127.932 71.7663 127.892 71.8154 127.865 71.8713C127.837 71.9271 127.821 71.9884 127.82 72.0508C127.804 72.1075 127.804 72.1674 127.82 72.224C127.855 72.2865 127.902 72.3415 127.958 72.3857C128.042 72.4499 128.131 72.5078 128.224 72.5589L128.674 72.7552C128.94 72.8591 129.182 72.9515 129.39 73.0554C129.574 73.1372 129.746 73.2462 129.898 73.3787C130.032 73.4918 130.139 73.6339 130.21 73.7944C130.284 73.9816 130.319 74.1819 130.314 74.3832C130.335 74.6127 130.295 74.8438 130.198 75.0529Z" fill="#231F20"/>
<path d="M134.1 75.5841C133.972 75.6605 133.831 75.7151 133.685 75.7458C133.516 75.793 133.341 75.8163 133.165 75.8151C133.017 75.8212 132.869 75.7954 132.732 75.7397C132.594 75.6839 132.47 75.5994 132.368 75.4918C132.148 75.2186 132.041 74.8716 132.068 74.5219V71.7276H131.375V70.8616H132.068V69.476L133.004 68.9796V70.8616H134.158V71.7276H133.004V74.3602C132.988 74.5228 133.029 74.6858 133.119 74.8221C133.172 74.8654 133.233 74.8979 133.298 74.9178C133.363 74.9376 133.432 74.9443 133.5 74.9375C133.629 74.9398 133.758 74.9203 133.881 74.8798C133.993 74.8505 134.102 74.8079 134.204 74.7528L134.1 75.5841Z" fill="#231F20"/>
<path d="M139.539 73.4364C139.539 73.5057 139.539 73.575 139.539 73.6212H136.341C136.357 73.827 136.404 74.0294 136.48 74.2216C136.553 74.372 136.646 74.5118 136.757 74.6372C136.864 74.737 136.99 74.8153 137.126 74.8682C137.262 74.9237 137.407 74.9512 137.553 74.949C137.747 74.9512 137.939 74.9159 138.119 74.8451C138.29 74.7704 138.453 74.6775 138.604 74.568L139.17 75.1684C138.967 75.374 138.723 75.5352 138.454 75.6418C138.15 75.7641 137.824 75.823 137.496 75.815C137.217 75.8142 136.942 75.7552 136.687 75.6418C136.432 75.5298 136.204 75.3645 136.018 75.1568C135.823 74.9193 135.67 74.6498 135.567 74.3601C135.456 74.0132 135.402 73.6506 135.406 73.2863C135.398 72.9188 135.449 72.5525 135.556 72.2009C135.65 71.91 135.799 71.6396 135.995 71.4042C136.179 71.1949 136.408 71.0293 136.664 70.9193C136.94 70.8103 137.234 70.7554 137.53 70.7576C137.842 70.7519 138.15 70.8192 138.431 70.9539C138.679 71.0773 138.896 71.2549 139.066 71.4735C139.242 71.7086 139.371 71.9751 139.447 72.2587C139.531 72.5594 139.574 72.8702 139.574 73.1824C139.551 73.2748 139.539 73.3556 139.539 73.4364ZM138.5 72.3626C138.459 72.2221 138.388 72.0921 138.292 71.9816C138.201 71.8653 138.082 71.7739 137.946 71.716C137.778 71.63 137.592 71.5864 137.403 71.589C137.26 71.5833 137.118 71.6093 136.986 71.6652C136.854 71.7211 136.737 71.8055 136.641 71.9123C136.436 72.1698 136.315 72.4843 136.295 72.8129H138.604C138.605 72.6616 138.589 72.5106 138.558 72.3626H138.5Z" fill="#231F20"/>
<path d="M143.973 75.7112V72.9747C144.009 72.6079 143.915 72.2404 143.708 71.9355C143.616 71.8364 143.503 71.7591 143.377 71.7092C143.251 71.6592 143.116 71.6379 142.98 71.6468C142.84 71.6377 142.7 71.6623 142.572 71.7185C142.443 71.7748 142.33 71.8611 142.241 71.9701C142.054 72.2358 141.964 72.558 141.987 72.8823V75.7112H141.029V70.8617H142.022V71.3235C142.15 71.1413 142.326 70.9976 142.53 70.9078C142.751 70.8051 142.991 70.7538 143.234 70.7577C143.477 70.7418 143.721 70.7825 143.945 70.8767C144.169 70.9709 144.369 71.1159 144.528 71.3004C144.85 71.7796 145.004 72.3522 144.966 72.9285V75.7112H143.973Z" fill="#231F20"/>
<path d="M147.564 75.5956C147.462 75.6955 147.332 75.763 147.192 75.7897C147.051 75.8163 146.906 75.801 146.774 75.7455C146.642 75.6901 146.53 75.597 146.45 75.4779C146.371 75.3588 146.329 75.219 146.329 75.076C146.307 74.9849 146.307 74.89 146.329 74.7989C146.409 74.6258 146.548 74.4867 146.721 74.4063C146.806 74.3594 146.901 74.3355 146.998 74.337C147.095 74.3366 147.19 74.3604 147.275 74.4063C147.365 74.4394 147.445 74.4951 147.506 74.568C147.575 74.6331 147.63 74.7117 147.668 74.7989C147.684 74.8906 147.684 74.9844 147.668 75.076C147.702 75.2561 147.665 75.4425 147.564 75.5956Z" fill="#231F20"/>
</svg>
