<svg id="Layer_1" data-name="Layer 1" xmlns="http://www.w3.org/2000/svg" viewBox="0 0 1000 1000"><defs><style>.cls-1,.cls-2{fill:none;stroke-miterlimit:10;stroke-width:31.11px;}.cls-1{stroke:#f8db66;}.cls-2{stroke:#424b75;}</style></defs><circle class="cls-1" cx="181.7" cy="717.2" r="95.4"/><path class="cls-1" d="M38.61,970A143.09,143.09,0,0,1,181.7,826.9h0A143.1,143.1,0,0,1,324.8,970"/><circle class="cls-1" cx="506.06" cy="717.2" r="95.4"/><path class="cls-1" d="M363,970a143.1,143.1,0,0,1,143.1-143.1h0A143.09,143.09,0,0,1,649.15,970"/><circle class="cls-1" cx="830.41" cy="717.2" r="95.4"/><path class="cls-1" d="M687.31,970a143.1,143.1,0,0,1,143.1-143.1h0A143.09,143.09,0,0,1,973.5,970"/><path class="cls-1" d="M822.58,416.7H761.24V521.63L656.31,416.7H556.14L506.06,521.63,451.2,416.7H355.8L250.87,521.63V416.7H189.53a55.05,55.05,0,0,1-55.05-55.05V121.16a55.05,55.05,0,0,1,55.05-55H822.58a55.05,55.05,0,0,1,55,55.05V361.65A55.05,55.05,0,0,1,822.58,416.7Z"/><circle class="cls-1" cx="506.06" cy="237.83" r="109.71"/><line class="cls-1" x1="506.06" y1="299.83" x2="506.06" y2="218.75"/><line class="cls-1" x1="506.06" y1="206.82" x2="506.06" y2="178.2"/><circle class="cls-2" cx="169.59" cy="705.09" r="95.4"/><path class="cls-2" d="M26.5,957.89a143.09,143.09,0,0,1,143.09-143.1h0a143.1,143.1,0,0,1,143.1,143.1"/><circle class="cls-2" cx="493.94" cy="705.09" r="95.4"/><path class="cls-2" d="M350.85,957.89a143.09,143.09,0,0,1,143.09-143.1h0A143.1,143.1,0,0,1,637,957.89"/><circle class="cls-2" cx="818.3" cy="705.09" r="95.4"/><path class="cls-2" d="M675.2,957.89a143.1,143.1,0,0,1,143.1-143.1h0a143.09,143.09,0,0,1,143.09,143.1"/><path class="cls-2" d="M810.47,404.59H749.13V509.52L644.2,404.59H544L493.94,509.52,439.09,404.59h-95.4L238.76,509.52V404.59H177.42a55.05,55.05,0,0,1-55-55V109.05a55.05,55.05,0,0,1,55-55H810.47a55.05,55.05,0,0,1,55,55.05V349.54A55.05,55.05,0,0,1,810.47,404.59Z"/><circle class="cls-2" cx="493.94" cy="225.72" r="109.71"/><line class="cls-2" x1="493.94" y1="287.72" x2="493.94" y2="206.64"/><line class="cls-2" x1="493.94" y1="194.71" x2="493.94" y2="166.09"/></svg>